<svg width="60" height="60" viewBox="0 0 60 60" fill="none" xmlns="http://www.w3.org/2000/svg">
<rect width="60" height="60" rx="30" fill="#FFA500"/>
<path d="M32.21 12.7899C31.623 12.2055 30.8284 11.8774 30 11.8774C29.1717 11.8774 28.3771 12.2055 27.79 12.7899L15.29 25.2899C14.9998 25.5802 14.7696 25.9247 14.6125 26.3039C14.4555 26.6831 14.3746 27.0895 14.3746 27.4999C14.3746 28.3288 14.7039 29.1238 15.29 29.7099C15.8762 30.2961 16.6711 30.6253 17.5 30.6253C18.329 30.6253 19.1239 30.2961 19.71 29.7099L26.875 22.5449V44.9999C26.875 45.8287 27.2043 46.6236 27.7903 47.2096C28.3764 47.7957 29.1712 48.1249 30 48.1249C30.8288 48.1249 31.6237 47.7957 32.2098 47.2096C32.7958 46.6236 33.125 45.8287 33.125 44.9999V22.5449L40.29 29.7099C40.5803 30.0001 40.9248 30.2304 41.304 30.3874C41.6832 30.5445 42.0896 30.6253 42.5 30.6253C42.9105 30.6253 43.3169 30.5445 43.6961 30.3874C44.0753 30.2304 44.4198 30.0001 44.71 29.7099C45.0003 29.4197 45.2305 29.0752 45.3876 28.696C45.5446 28.3168 45.6255 27.9104 45.6255 27.4999C45.6255 27.0895 45.5446 26.6831 45.3876 26.3039C45.2305 25.9247 45.0003 25.5802 44.71 25.2899L32.21 12.7899Z" fill="#FFF2D9"/>
</svg>
