<svg width="57" height="50" viewBox="0 0 57 50" fill="none" xmlns="http://www.w3.org/2000/svg">
<g clip-path="url(#clip0_98_2011)">
<path d="M14.5366 18.5426C13.4728 18.5426 12.51 17.8235 12.51 16.4922C12.51 15.4819 13.1994 14.4418 14.4356 14.4418H14.9051C16.3849 14.4418 17.6211 14.0198 17.6211 12.4924C17.6211 11.0601 16.3374 10.6144 15.2022 10.6144H12.3614C11.7908 10.6144 11.7671 11.1315 11.7671 11.28C11.5709 15.3036 11.6958 20.4682 11.7908 23.6062C11.8146 24.3966 11.1252 25.3119 9.6929 25.3119C7.91589 25.3119 7.59496 24.2243 7.54147 23.63C7.36911 21.431 7.36911 10.3648 7.69005 8.31439C7.88617 7.00689 9.1699 6.48389 9.81176 6.48389H14.7743C20.0875 6.48389 21.817 9.40199 21.817 12.5103C21.817 15.6186 19.9389 18.5367 15.541 18.5367H14.5307L14.5366 18.5426Z" fill="white"/>
<path d="M6.18623 1.8959C6.20406 1.30158 6.47745 0.695373 6.97073 0.362555C7.52345 -0.0118657 8.29012 0.00596382 8.86067 0.338782C9.43715 0.6716 9.82346 1.28375 9.96015 1.93156C10.1563 2.89435 9.65705 4.76645 8.44464 4.84371C7.14309 4.93286 6.15057 2.96567 6.18623 1.88995V1.8959Z" fill="white"/>
<path d="M4.17743 3.69035C3.61877 3.48234 2.95908 3.50611 2.45985 3.83893C1.90714 4.20741 1.63375 4.92059 1.7229 5.58028C1.81205 6.23998 2.23401 6.82835 2.78078 7.20277C3.595 7.74954 5.51465 7.99322 6.04954 6.90561C6.62008 5.73481 5.18183 4.07071 4.17149 3.69035H4.17743Z" fill="white"/>
<path d="M12.6467 0.178085C13.2291 -0.154733 14.0077 0.0057331 14.5009 0.457415C14.9942 0.909097 15.2201 1.59851 15.226 2.27009C15.2379 2.98921 15.0002 3.73211 14.4891 4.22539C13.8294 4.85537 11.4461 5.48535 11.2381 4.13625C11.1549 3.58947 11.4402 2.74554 11.5531 2.21065C11.7017 1.48559 11.9573 0.570336 12.6526 0.172142L12.6467 0.178085Z" fill="white"/>
<path d="M2.89379 12.9379C2.28759 12.9439 1.68138 12.6646 1.31885 12.1832C0.956316 11.7018 0.849339 11.0302 1.07518 10.4656C1.31885 9.85937 1.91317 9.44335 2.54909 9.27694C3.54754 9.01544 5.66926 9.40769 5.5504 10.8162C5.46125 11.8741 3.85659 12.9261 2.89379 12.9379Z" fill="white"/>
<path d="M8.14756 39.332C8.12973 38.9278 7.52947 38.7911 6.19225 38.4702C4.40335 38.0661 1.50308 37.2875 1.62194 34.7617C1.74081 32.2774 4.0527 31.4691 6.42998 31.4335C7.15505 31.4157 8.8964 31.4513 9.55609 31.5821C10.1266 31.6772 10.8398 32.4022 10.7626 33.4007C10.7031 34.2446 9.96023 34.8568 9.09847 34.7438C8.55764 34.6666 6.89355 34.5655 6.49535 34.5893C5.31266 34.6309 5.07493 34.7854 5.07493 35.1064C5.07493 35.3916 5.99613 35.564 7.25608 35.8909C9.70467 36.4852 11.5827 37.2103 11.6243 39.3201C11.6838 42.4224 8.55764 43.1475 5.97235 43.0702C4.86692 43.0227 3.20877 42.7255 2.28164 42.2085C1.8775 41.9648 1.28318 41.2754 1.56845 40.378C1.91316 39.2785 3.02453 39.1953 3.71394 39.3973C4.34986 39.6113 5.41964 39.8193 6.31706 39.8787C7.49975 39.956 8.17727 39.8193 8.15944 39.3379L8.14756 39.332Z" fill="white"/>
<path d="M17.0563 41.5486C17.0147 42.3093 16.0459 42.9274 15.1842 42.8917C14.3046 42.8501 13.5854 42.238 13.5854 41.4119C13.6627 38.4284 13.6449 36.0392 13.6033 33.2162C13.6033 32.4139 14.2986 31.8671 15.1426 31.7839C16.0638 31.7067 17.0503 32.1643 17.0503 33.1271C17.1276 35.754 17.1692 38.363 17.0503 41.5486H17.0563ZM17.0741 29.4066C17.0147 30.3457 16.1054 30.8271 15.1426 30.7498C14.263 30.6725 13.6449 30.1793 13.6271 29.5433L13.6092 28.7588C13.5617 27.8971 14.5661 27.4395 15.2436 27.4395C16.0875 27.4395 17.0325 27.802 17.0741 28.5449V29.4066Z" fill="white"/>
<path d="M24.9964 39.4447C25.769 39.2664 26.2504 39.4626 26.5357 40.0688C26.9577 40.9305 26.613 41.7923 25.9414 42.2499C25.3174 42.7075 24.4556 42.9037 23.5106 42.8858C21.3295 42.8442 20.3667 41.3168 20.331 38.9574C20.3132 37.5786 20.2894 36.1463 20.2894 34.7496H19.8199C19.0651 34.7496 18.5837 33.9295 18.5837 33.2103C18.5837 32.4912 19.0651 31.5878 19.8199 31.5878H20.3073C20.3251 30.94 20.3489 30.3457 20.3667 29.7573C20.3667 28.8005 21.4068 28.3785 22.1853 28.4142C23.0292 28.4558 23.7721 29.0026 23.7721 29.8465C23.7543 30.423 23.7305 30.9995 23.7305 31.5878H24.9667C25.8404 31.5878 26.2504 32.3426 26.2504 33.1866C26.2504 33.87 25.8582 34.7556 24.9489 34.7556H23.6295C23.6117 36.0393 23.6295 37.3587 23.7365 38.684C23.7959 39.6349 24.5091 39.5636 25.0024 39.4447H24.9964Z" fill="white"/>
<path d="M31.7301 41.5486C31.6885 42.3093 30.7198 42.9274 29.858 42.8917C28.9784 42.8501 28.2593 42.238 28.2593 41.4119C28.3365 38.4284 28.3187 36.0392 28.2771 33.2162C28.2771 32.4139 28.9725 31.8671 29.8164 31.7839C30.7376 31.7067 31.7242 32.1643 31.7242 33.1271C31.8014 35.754 31.843 38.363 31.7242 41.5486H31.7301ZM31.7479 29.4066C31.6885 30.3457 30.7792 30.8271 29.8164 30.7498C28.9368 30.6725 28.3187 30.1793 28.3009 29.5433L28.2831 28.7588C28.2355 27.8971 29.2399 27.4395 29.9174 27.4395C30.7614 27.4395 31.7063 27.802 31.7479 28.5449V29.4066Z" fill="white"/>
<path d="M37.2633 41.9941C36.4788 40.7698 34.5829 36.461 33.7568 33.4775C33.4537 32.4791 34.3333 31.8313 35.0405 31.6589C35.8607 31.4331 36.7819 31.6589 37.0553 32.5385C37.5248 34.0362 38.1607 36.4432 38.7788 38.0894C39.0046 38.6065 39.3493 38.6065 39.5395 38.1073C40.1873 36.461 40.948 34.054 41.3225 32.5563C41.5305 31.7956 42.3922 31.4509 43.3313 31.653C44.1336 31.8313 44.9538 32.5563 44.6744 33.5726C43.7176 37.0375 41.9524 40.7282 40.9956 42.0119C40.6509 42.529 40.0447 42.8915 39.1829 42.8915C38.2261 42.8915 37.6436 42.5884 37.2633 41.9882V41.9941Z" fill="white"/>
<path d="M50.7364 31.4272C53.4168 31.4272 55.9248 33.2577 56.0437 36.8237C56.0615 38.0658 55.5028 38.7908 54.338 38.7908H50.6354C49.8925 38.7908 49.5478 38.1252 49.5478 37.3823C49.5478 36.6394 49.9876 35.9262 50.671 35.9262H52.5729C52.555 35.2606 52.1925 34.3572 50.8077 34.3572C49.423 34.3572 48.6266 35.2368 48.6266 37.2872C48.6266 39.3376 49.4705 40.1162 50.9266 40.1934C51.6517 40.235 52.4956 40.1162 53.2741 39.6942C54.0765 39.3139 55.0393 39.5694 55.3008 40.556C55.5385 41.4772 54.7718 42.0953 54.4568 42.2795C53.4703 42.856 52.0677 43.1829 50.7245 43.0997C46.7604 42.856 45.1558 40.348 45.1558 37.2813C45.1558 33.9531 47.123 31.4272 50.7245 31.4272H50.7364Z" fill="white"/>
<path d="M27.7838 11.4579C28.7882 13.229 31.0229 19.3445 31.8965 22.2982C32.0926 23.1065 31.6291 23.9267 30.8743 24.1228C29.7807 24.4081 29.121 23.784 28.9071 23.1006C28.2652 21.0086 26.6011 15.5527 26.2267 14.798C26.0484 15.1724 25.5492 16.6938 25.0262 18.3936H26.3159C26.9755 18.3936 27.3381 19.184 27.3381 19.915C27.3381 20.5391 27.1063 21.4008 26.298 21.4008H24.0812C23.8851 22.0605 23.689 22.6727 23.5642 23.1006C23.368 23.7781 22.7202 24.4081 21.6861 24.1406C20.7174 23.9089 20.3786 23.1184 20.5926 22.2982C21.4662 19.3445 23.689 13.229 24.7231 11.4579C24.8479 11.2083 25.4363 10.5664 26.2089 10.5664C27.029 10.5664 27.6412 11.2083 27.7838 11.4579Z" fill="white"/>
<path d="M40.217 13.9601C40.6449 15.8025 41.3284 17.9658 41.8098 19.309C42.0237 19.933 42.416 19.7547 42.5051 19.2733C42.9152 16.9674 43.1113 13.5322 43.2183 11.5828C43.254 10.9232 43.985 10.4536 44.8467 10.5606C45.5778 10.6498 46.2791 11.1312 46.2434 11.9216C46.0651 15.4281 44.9894 21.7457 44.2405 23.0116C43.9553 23.5108 43.3075 24.1943 42.202 24.1943C41.0966 24.1943 40.4845 23.4811 40.2705 22.9581C39.9496 22.2093 39.4503 20.6521 38.963 19.0237C38.4638 20.6521 37.9408 22.1023 37.602 22.9403C37.3881 23.4573 36.7581 24.1943 35.6883 24.1943C34.6839 24.1943 33.8637 23.6059 33.6141 22.9759C32.9723 21.6149 31.7004 15.0537 31.4152 11.9573C31.326 11.1193 32.1105 10.6319 32.8296 10.5606C33.6141 10.4893 34.3689 10.8102 34.4759 11.6542C34.6542 13.0865 35.0286 17.0565 35.4981 19.5586C35.5873 20.04 35.926 20.0222 36.0687 19.5586C36.6927 17.4666 37.4118 13.6749 37.5545 12.0286C37.6258 11.1728 38.339 10.8816 39.0403 10.8816C39.9555 10.9172 40.4191 11.5769 40.4191 12.1534C40.4012 12.6883 40.3299 13.3183 40.223 13.9601H40.217Z" fill="white"/>
<path d="M47.4973 17.1811C47.5686 16.248 48.2996 15.7845 48.9831 15.8558C50.5402 16.0697 52.6678 16.0876 54.5102 15.8736C55.2056 15.7488 55.9425 16.3194 56.0317 17.2168C56.1208 18.132 55.4968 18.7739 54.8846 18.863C52.7748 19.184 50.5758 19.1483 48.6027 18.863C47.9608 18.7739 47.4022 18.0429 47.4913 17.1811H47.4973Z" fill="white"/>
</g>
<defs>
<clipPath id="clip0_98_2011">
<rect width="55.0874" height="50" fill="white" transform="translate(0.956299)"/>
</clipPath>
</defs>
</svg>
