<svg width="35" height="36" viewBox="0 0 35 36" fill="none" xmlns="http://www.w3.org/2000/svg">
<path d="M34.524 30.5864L27.7081 23.7716C27.4004 23.464 26.9834 23.2932 26.5459 23.2932H25.4315C27.3184 20.8803 28.4396 17.8455 28.4396 14.544C28.4396 6.6903 22.0749 0.32666 14.2198 0.32666C6.36472 0.32666 0 6.6903 0 14.544C0 22.3977 6.36472 28.7614 14.2198 28.7614C17.5218 28.7614 20.5572 27.6404 22.9704 25.7539V26.868C22.9704 27.3055 23.1413 27.7224 23.449 28.03L30.2649 34.8448C30.9075 35.4873 31.9467 35.4873 32.5825 34.8448L34.5172 32.9104C35.1598 32.2679 35.1598 31.2289 34.524 30.5864ZM14.2198 23.2932C9.38643 23.2932 5.46915 19.3834 5.46915 14.544C5.46915 9.71149 9.37959 5.79488 14.2198 5.79488C19.0532 5.79488 22.9704 9.70465 22.9704 14.544C22.9704 19.3766 19.06 23.2932 14.2198 23.2932Z" fill="#FFA500"/>
</svg>
