<svg width="21" height="20" viewBox="0 0 21 20" fill="none" xmlns="http://www.w3.org/2000/svg">
<path d="M10.7144 4.79846C9.69365 4.7985 8.69581 5.10123 7.84709 5.66837C6.99837 6.23551 6.33689 7.04158 5.94628 7.98466C5.55568 8.92774 5.4535 9.96547 5.65266 10.9666C5.85183 11.9678 6.3434 12.8874 7.06521 13.6092C7.78701 14.3309 8.70664 14.8225 9.7078 15.0216C10.709 15.2207 11.7467 15.1185 12.6897 14.7279C13.6328 14.3372 14.4389 13.6757 15.006 12.827C15.5731 11.9782 15.8758 10.9804 15.8758 9.95961C15.8731 8.59157 15.3285 7.28031 14.3611 6.31298C13.3937 5.34564 12.0825 4.80105 10.7144 4.79846ZM10.7144 13.2662C10.0605 13.2661 9.42127 13.0722 8.87757 12.7089C8.33388 12.3455 7.91012 11.8292 7.65989 11.225C7.40967 10.6209 7.34421 9.95607 7.47179 9.31472C7.59937 8.67337 7.91427 8.08425 8.37666 7.62186C8.83905 7.15946 9.42817 6.84457 10.0695 6.71698C10.7109 6.5894 11.3757 6.65486 11.9798 6.90509C12.584 7.15531 13.1004 7.57907 13.4637 8.12277C13.827 8.66647 14.0209 9.30569 14.021 9.95961C14.0171 10.8354 13.6675 11.6741 13.0482 12.2934C12.429 12.9127 11.5902 13.2623 10.7144 13.2662Z" fill="white"/>
<path d="M16.0773 5.84671C16.7232 5.84671 17.2467 5.32316 17.2467 4.67732C17.2467 4.03149 16.7232 3.50793 16.0773 3.50793C15.4315 3.50793 14.908 4.03149 14.908 4.67732C14.908 5.32316 15.4315 5.84671 16.0773 5.84671Z" fill="white"/>
<path d="M19.1012 1.65318C18.053 0.564594 16.561 0 14.8674 0H6.5611C3.05313 0 0.714355 2.33878 0.714355 5.84674V14.1129C0.714355 15.8466 1.27895 17.3386 2.40794 18.4274C3.49673 19.4758 4.94791 20 6.6015 20H14.8272C16.561 20 18.0126 19.4354 19.061 18.4274C20.1498 17.379 20.7142 15.8874 20.7142 14.1533V5.84674C20.7142 4.15316 20.1496 2.70157 19.1012 1.65318ZM18.94 14.1531C18.94 15.403 18.4964 16.411 17.7706 17.0966C17.0448 17.7822 16.0368 18.145 14.827 18.145H6.6013C5.39171 18.145 4.38352 17.782 3.65773 17.0966C2.93193 16.3708 2.56894 15.3628 2.56894 14.1129V5.84674C2.56894 4.63715 2.93193 3.62896 3.65773 2.90317C4.34312 2.21778 5.39151 1.85478 6.6013 1.85478H14.9078C16.1174 1.85478 17.1256 2.21778 17.8514 2.94357C18.5749 3.73483 18.9649 4.77487 18.9402 5.84674L18.94 14.1531Z" fill="white"/>
</svg>
