<svg width="52" height="51" viewBox="0 0 52 51" fill="none" xmlns="http://www.w3.org/2000/svg">
<path d="M45.193 32.5035L34.3875 38.7687C34.2702 38.3662 34.074 37.9936 33.8156 37.6601C35.9116 36.4688 38.2828 34.8427 41.0489 32.6992C51.0024 24.2767 53.8997 15.866 49.6604 7.70137C47.4471 3.46034 42.1998 1.04758 38.2595 0.601284C34.1154 0.1344 29.9475 1.29587 26.7079 3.79129C23.4587 1.29587 19.2884 0.139034 15.1441 0.601284C11.2033 1.04977 5.95622 3.4624 3.74318 7.70314C-0.496647 15.8677 2.40089 24.2761 12.381 32.7216C13.5917 33.66 14.7641 34.5201 15.8887 35.3021C15.5968 35.4286 15.3096 35.5665 15.0369 35.7321L9.88544 38.8554H4.61437C4.12387 38.8554 3.72909 39.2372 3.72909 39.7064C3.72909 40.1779 4.12627 40.5574 4.61437 40.5574H10.1414C10.3089 40.5574 10.4716 40.5114 10.6152 40.4263L15.9819 37.1719C18.6784 35.5459 23.1668 36.4268 24.2461 37.8573C24.4136 38.0781 24.6791 38.2092 24.9639 38.2092H31.8499C31.869 38.2207 31.8906 38.2345 31.9121 38.246C32.4696 38.5772 32.7974 39.1867 32.7448 39.8283C32.6778 40.5091 32.1896 41.0887 31.5173 41.3026H23.0326C22.5445 41.3026 22.1474 41.6821 22.1474 42.1535C22.1474 42.625 22.5445 43.0045 23.0326 43.0045H31.6441C31.7207 43.0045 31.7972 42.9953 31.8714 42.9769C33.0247 42.6848 33.9339 41.8522 34.3215 40.7966L46.1751 33.9244C46.2229 33.8968 46.266 33.8646 46.3066 33.8324C47.0412 33.2022 48.1682 33.2344 48.8668 33.8968C49.5463 34.5569 49.5846 35.6125 48.9649 36.3209L34.8579 47.6343C33.8745 48.4278 32.817 48.7981 31.5297 48.7981H1.33412C0.843621 48.7981 0.448837 49.1799 0.448837 49.649C0.448837 50.1205 0.846022 50.5 1.33412 50.5H31.5272C33.2308 50.5 34.6927 49.9894 35.9944 48.9407L50.159 37.5837C50.1925 37.5561 50.2236 37.5285 50.2523 37.4963C51.5323 36.1163 51.4773 34.0073 50.1207 32.6895C48.7736 31.4084 46.6274 31.3325 45.1942 32.5032L45.193 32.5035ZM18.0625 34.6884C16.6269 33.7408 15.0956 32.6391 13.5236 31.4179C4.12012 23.4623 1.44033 15.953 5.32863 8.4649C7.16142 4.9506 11.7601 2.69899 15.3513 2.29214C19.249 1.85746 23.1733 3.0396 26.1232 5.54191C26.4582 5.8271 26.963 5.8271 27.298 5.53961C30.2338 3.0373 34.1528 1.85285 38.0533 2.28984C41.6471 2.69923 46.2434 4.95083 48.076 8.46025C51.9665 15.9489 49.2843 23.4582 39.9123 31.3903C36.955 33.6833 34.4594 35.3645 32.2937 36.5329C32.2196 36.5145 32.143 36.5007 32.0664 36.5007L25.374 36.5053C23.9408 35.0541 20.8854 34.2652 18.0617 34.6884L18.0625 34.6884ZM35.4165 29.4193C36.1917 28.4717 36.9861 26.8273 36.364 24.387C35.1581 19.6285 31.3633 16.5533 26.7027 16.5533C22.0394 16.5533 18.2468 19.6283 17.0389 24.387C16.4192 26.8272 17.2112 28.4717 17.9864 29.4216C19.1277 30.8176 20.994 31.6525 22.9775 31.6525C23.712 31.6525 24.4107 31.5375 25.0615 31.3052C26.155 30.9119 27.2436 30.9096 28.3419 31.3052C28.9879 31.5352 29.6889 31.6525 30.4235 31.6525C32.4094 31.6525 34.2753 30.8176 35.4165 29.4193ZM34.024 28.3682C33.2272 29.3433 31.8491 29.9482 30.4254 29.9482C29.9014 29.9482 29.4085 29.8677 28.9635 29.709C28.217 29.4422 27.4562 29.3043 26.7048 29.3043C25.9511 29.3043 25.1903 29.4399 24.4462 29.709C23.9987 29.8677 23.5058 29.9482 22.9819 29.9482C21.5582 29.9482 20.1801 29.3434 19.3833 28.3682C18.62 27.4344 18.4047 26.1971 18.7636 24.7895C19.7709 20.8199 22.8862 18.2552 26.705 18.2552C30.5213 18.2552 33.6387 20.8197 34.6463 24.7895C35.0004 26.1971 34.7849 27.4344 34.024 28.3682ZM22.4412 15.2837C24.1544 15.2837 25.5469 13.9038 25.5469 12.211C25.5469 10.5252 24.1544 9.15213 22.4412 9.15213C20.728 9.15213 19.3355 10.5252 19.3355 12.211C19.3379 13.9038 20.7304 15.2837 22.4412 15.2837ZM22.4412 10.8541C23.1757 10.8541 23.7739 11.4613 23.7739 12.2111C23.7739 12.9654 23.1757 13.5795 22.4412 13.5795C21.7066 13.5795 21.1085 12.9654 21.1085 12.2111C21.1108 11.4613 21.7066 10.8541 22.4412 10.8541ZM30.9761 15.2837C32.6893 15.2837 34.0818 13.9038 34.0818 12.211C34.0818 10.5252 32.6893 9.15213 30.9761 9.15213C29.2629 9.15213 27.8704 10.5252 27.8704 12.211C27.8704 13.9038 29.2629 15.2837 30.9761 15.2837ZM30.9761 10.8541C31.7106 10.8541 32.3088 11.4613 32.3088 12.2111C32.3088 12.9654 31.7106 13.5795 30.9761 13.5795C30.2415 13.5795 29.6434 12.9654 29.6434 12.2111C29.6434 11.4613 30.2415 10.8541 30.9761 10.8541ZM36.3716 19.8489C36.7951 20.1157 37.2856 20.256 37.7904 20.256C38.6925 20.256 39.5347 19.8144 40.0419 19.0715C40.8482 17.8802 40.5276 16.2909 39.3265 15.5343C38.9078 15.2698 38.4196 15.1295 37.9148 15.1295C37.0127 15.1295 36.1705 15.5688 35.6609 16.3024C35.2565 16.8843 35.113 17.5789 35.2589 18.2597C35.3953 18.9197 35.7925 19.4855 36.3716 19.8489ZM37.1348 17.25C37.3143 16.9901 37.6062 16.8337 37.9148 16.8337C38.0751 16.8337 38.2235 16.8751 38.3551 16.9579C38.7427 17.2017 38.8336 17.7329 38.5608 18.1377C38.3838 18.3953 38.0967 18.5494 37.7928 18.5494C37.6325 18.5494 37.477 18.5057 37.3454 18.4206C37.1635 18.3079 37.0415 18.1285 36.996 17.9169C36.9434 17.6892 36.9937 17.4524 37.1348 17.25ZM18.149 18.262C18.2926 17.5835 18.149 16.8866 17.7447 16.3047C17.235 15.5711 16.3928 15.1318 15.4908 15.1318C14.9883 15.1318 14.5002 15.2721 14.0791 15.5366C12.878 16.2933 12.555 17.8802 13.3661 19.0761C13.8709 19.8167 14.7131 20.2583 15.6152 20.2583C16.12 20.2583 16.6105 20.118 17.034 19.8512C17.6131 19.4855 18.0079 18.9197 18.149 18.262ZM16.412 17.9216C16.3665 18.1332 16.2421 18.3126 16.0627 18.4253C15.6774 18.669 15.1152 18.5333 14.8496 18.1424C14.5744 17.7353 14.6629 17.204 15.0505 16.9602C15.1821 16.8774 15.3305 16.836 15.4908 16.836C15.7995 16.836 16.089 16.9924 16.2708 17.2523C16.4096 17.4524 16.4598 17.6893 16.412 17.9216Z" fill="#FFA500"/>
</svg>
