<svg width="30" height="20" viewBox="0 0 30 20" fill="none" xmlns="http://www.w3.org/2000/svg">
<path d="M28.6887 3.12314C28.5259 2.51769 28.2068 1.96564 27.7635 1.52231C27.3202 1.07898 26.7681 0.75994 26.1627 0.597142C23.9344 -1.02179e-06 14.9998 0 14.9998 0C14.9998 0 6.06525 -1.02179e-06 3.83697 0.597142C3.23153 0.759966 2.67949 1.07902 2.23617 1.52234C1.79285 1.96567 1.47379 2.5177 1.31097 3.12314C0.714111 5.35114 0.714111 10 0.714111 10C0.714111 10 0.714111 14.6489 1.31097 16.8769C1.47378 17.4823 1.79282 18.0344 2.23614 18.4778C2.67946 18.9212 3.2315 19.2403 3.83697 19.4031C6.06525 20 14.9998 20 14.9998 20C14.9998 20 23.9344 20 26.1627 19.4031C26.7682 19.2403 27.3202 18.9212 27.7635 18.4778C28.2069 18.0344 28.5259 17.4824 28.6887 16.8769C29.2855 14.6491 29.2855 10 29.2855 10C29.2855 10 29.2855 5.35114 28.6887 3.12314ZM12.1427 14.2857V5.71429L19.5655 10L12.1427 14.2857Z" fill="white"/>
</svg>
