<svg width="54" height="51" viewBox="0 0 54 51" fill="none" xmlns="http://www.w3.org/2000/svg">
<path fill-rule="evenodd" clip-rule="evenodd" d="M16.3041 13.7739C15.2717 14.026 14.3093 14.4753 13.4654 15.0825L12.6367 15.1943C10.4534 15.4902 8.53755 16.7967 7.47004 18.7258C6.70499 20.1067 5.7317 21.8604 4.78254 23.5746C4.01312 24.9644 4.16654 26.6808 5.16834 27.9105C5.92463 28.8378 7.04478 29.3485 8.19995 29.342C8.20214 29.673 8.23283 29.9952 8.29202 30.3087L7.30997 31.3324C5.19683 33.6757 3.25899 36.0191 2.049 38.3274C1.07789 40.1775 0.567171 42.0144 0.722783 43.8186C0.880612 45.6489 1.71577 47.4618 3.52863 49.2264C4.31338 50.0067 5.37438 50.4474 6.48353 50.4496C7.56424 50.5 9.22799 50.5 10.6616 50.5C11.6437 50.5 12.5841 50.1098 13.279 49.4149C13.2899 49.4061 13.2987 49.3974 13.3075 49.3864C13.3688 49.4587 13.4368 49.5333 13.5048 49.6012C14.0791 50.1777 14.8595 50.5 15.6727 50.5H24.1801C24.9933 50.5 25.7715 50.1778 26.3458 49.6012C26.9223 49.0269 27.2446 48.2487 27.2446 47.4333V46.8787C27.2424 46.2561 26.9947 45.6599 26.5563 45.2215C25.9315 44.5266 25.0657 42.8321 25.9337 40.081C26.348 38.7768 26.4774 37.1393 26.4686 35.561C28.4721 37.1349 31.2714 37.2138 33.3541 35.7999C33.5887 36.1835 33.8737 36.543 34.2025 36.8762C36.4888 39.1582 40.198 39.1582 42.482 36.8762C43.9134 35.4426 44.4483 33.45 44.0844 31.5999C45.3141 31.4355 46.5023 30.881 47.4449 29.9384C49.4944 27.8888 49.7049 24.6949 48.0805 22.4086C49.1284 22.0206 50.1104 21.4046 50.9522 20.5629C54.089 17.4282 54.089 12.3383 50.9522 9.20364C48.6615 6.91294 45.3253 6.29695 42.4712 7.35571C42.0416 5.86288 41.2371 4.45558 40.0621 3.27847C36.3575 -0.426156 30.3381 -0.426156 26.631 3.27847C25.3114 4.6003 24.4609 6.21805 24.0795 7.91906C21.9992 8.14046 19.9781 9.05016 18.3847 10.6416C17.4619 11.5667 16.7666 12.634 16.3041 13.7739ZM8.98026 32.1236L8.60103 32.516C6.59748 34.7387 4.74955 36.9527 3.60089 39.1428C2.80077 40.6707 2.34045 42.1766 2.4698 43.6673C2.59694 45.1294 3.3028 46.5608 4.75174 47.9703L4.76051 47.9791C5.21865 48.4372 5.84121 48.6959 6.49222 48.6959H6.53168C7.60801 48.7463 9.24763 48.7463 10.6616 48.7463C11.1767 48.7463 11.6743 48.5402 12.0382 48.1764C12.4042 47.8103 12.6081 47.3171 12.6081 46.8019V46.7932C12.6081 46.278 12.4042 45.7848 12.0382 45.4188C11.6743 45.0549 11.1767 44.8488 10.6616 44.8488H7.89734C7.4129 44.8488 7.02052 44.4564 7.02052 43.972C7.02052 43.4876 7.4129 43.0952 7.89734 43.0952H10.6616C11.3543 43.0952 12.0272 43.2903 12.6081 43.6476V39.5769C12.6081 39.0946 13.0005 38.7001 13.485 38.7001C13.9672 38.7001 14.3618 39.0946 14.3618 39.5769V47.4333C14.3618 47.784 14.4999 48.1172 14.7454 48.3627C14.9909 48.6082 15.3241 48.7463 15.6726 48.7463H18.4916C18.8402 48.7463 19.1733 48.6082 19.4188 48.3627C19.6644 48.1172 19.8025 47.784 19.8025 47.4333V46.8962C19.8025 46.7231 19.7345 46.5565 19.6117 46.4359C19.5986 46.4249 19.5876 46.414 19.5767 46.4008C18.7283 45.467 17.4109 43.2245 18.5749 39.5506C18.7217 39.0903 19.2149 38.8338 19.6753 38.9807C20.1378 39.1276 20.392 39.6208 20.2474 40.0811C19.3837 42.8124 20.232 44.5047 20.8568 45.1996C21.3039 45.6511 21.556 46.2583 21.556 46.8918V47.4333C21.556 47.8914 21.453 48.3408 21.2601 48.7463H24.1799C24.5263 48.7463 24.8616 48.6082 25.1071 48.3627C25.3527 48.1172 25.4908 47.784 25.4908 47.4333V46.8809C25.4908 46.7231 25.425 46.5696 25.311 46.4578C25.3 46.4469 25.2891 46.4337 25.2759 46.4227C24.4342 45.4955 23.0926 43.2508 24.2632 39.5507C24.7257 38.0907 24.7674 36.1573 24.6819 34.4563C24.1076 34.6623 23.4872 34.7741 22.8428 34.7741C22.6674 34.7741 22.4964 34.7654 22.3232 34.75C21.6174 36.3064 20.0479 37.3915 18.2262 37.3915C16.409 37.3915 14.8417 36.3086 14.1314 34.7544C13.978 34.7676 13.8224 34.7741 13.6667 34.7741C11.6763 34.7741 9.93604 33.7107 8.98026 32.1236ZM26.6594 33.2196C26.8084 33.441 26.9794 33.6536 27.1767 33.8509C28.7747 35.4512 31.3745 35.4512 32.9747 33.8509C32.9922 33.8334 33.0076 33.8158 33.0251 33.7983C33.2356 33.5791 33.5446 33.487 33.8406 33.5506C34.1365 33.6142 34.3798 33.8268 34.4828 34.114C34.6779 34.6686 35.0002 35.1903 35.4451 35.6352C37.0432 37.2355 39.6408 37.2355 41.2409 35.6352C42.4641 34.4121 42.7512 32.6058 42.1046 31.1064C41.9818 30.8236 42.0169 30.4992 42.1967 30.2472C42.3742 29.9973 42.6723 29.8614 42.9792 29.8855C44.1344 29.9753 45.3225 29.5808 46.2059 28.6974C47.8062 27.0993 47.8062 24.4995 46.2059 22.8993C46.1051 22.8007 46.0021 22.7064 45.8947 22.6188C45.6272 22.4017 45.5132 22.0488 45.6009 21.7156C45.6908 21.3824 45.967 21.1303 46.3068 21.0755C47.5541 20.8673 48.7509 20.2842 49.7132 19.3219C52.1618 16.8733 52.1618 12.8948 49.7132 10.4442C47.6987 8.43187 44.6539 8.07233 42.271 9.37004C42.0211 9.50375 41.7208 9.51033 41.4665 9.38538C41.21 9.26043 41.0325 9.01931 40.9864 8.73875C40.7343 7.19334 40.0131 5.70932 38.8228 4.51902C35.8 1.49617 30.8941 1.49617 27.871 4.51902C26.6457 5.74221 25.9179 7.27667 25.6877 8.87028C25.6264 9.29116 25.2713 9.60682 24.846 9.62214C22.9499 9.68352 21.0712 10.4354 19.6245 11.8821C19.1181 12.3885 18.6973 12.9475 18.3597 13.5393C20.1199 13.5525 21.753 14.1158 23.088 15.0826L23.9253 15.1943C26.1086 15.4903 28.0245 16.7968 29.092 18.7258C29.8593 20.1068 30.8304 21.8604 31.7817 23.5746C32.5511 24.9644 32.3977 26.6808 31.3959 27.9106C30.6287 28.8532 29.4822 29.3639 28.3073 29.342C28.2985 30.8611 27.6699 32.2331 26.6594 33.2196ZM20.5898 34.2893C19.6318 33.8531 18.823 33.1516 18.253 32.277C17.6787 33.1648 16.8522 33.8751 15.8768 34.3069C16.3568 35.1048 17.2293 35.6375 18.2267 35.6375C19.2328 35.6375 20.1119 35.096 20.5898 34.2893ZM19.2021 30.0411C19.5419 31.7377 21.0435 33.0201 22.8432 33.0201C24.8906 33.0201 26.5544 31.3563 26.5544 29.3089C26.5544 29.0546 25.5153 24.5982 24.6275 20.6719C24.6275 20.6544 24.6232 20.6413 24.621 20.6281C24.0839 17.5329 21.4424 15.2926 18.3033 15.2926H18.2266C15.1051 15.3058 12.4415 17.5548 11.9067 20.6303C11.9045 20.6456 11.9023 20.6632 11.8979 20.6785C10.9926 24.6001 9.95357 29.0545 9.95357 29.3088C9.95357 31.3561 11.6151 33.0199 13.667 33.0199C15.4644 33.0199 16.9638 31.7376 17.3058 30.0409C16.0169 29.6354 15.0831 28.4319 15.0831 27.0137C15.0831 25.2644 16.5035 23.844 18.2528 23.844C20.0042 23.844 21.4247 25.2644 21.4247 27.0137C21.4247 28.4319 20.4889 29.6356 19.2021 30.0411ZM18.253 25.5977C19.0355 25.5977 19.6712 26.2312 19.6712 27.0138C19.6712 27.7963 19.0355 28.432 18.253 28.432C17.4726 28.432 16.8369 27.7963 16.8369 27.0138C16.8369 26.2312 17.4726 25.5977 18.253 25.5977ZM11.2911 17.408C10.3354 17.8727 9.53307 18.6224 9.00478 19.576L6.31728 24.4248C5.89421 25.1877 5.97751 26.1281 6.52991 26.8032C7.02094 27.406 7.79692 27.6888 8.54884 27.5551C8.93464 25.7773 9.57909 22.9342 10.182 20.3233C10.3661 19.2623 10.7518 18.2783 11.2911 17.408ZM25.2373 17.3927C25.7744 18.2607 26.1558 19.2428 26.3443 20.3037C26.9362 22.9211 27.5741 25.7642 27.9577 27.544C28.7293 27.704 29.5316 27.4234 30.038 26.803C30.586 26.1279 30.6693 25.1875 30.2484 24.4246L27.5609 19.5758C27.026 18.6112 26.2084 17.853 25.2373 17.3927Z" fill="#FFA500"/>
</svg>
