<svg width="48" height="51" viewBox="0 0 48 51" fill="none" xmlns="http://www.w3.org/2000/svg">
<path fill-rule="evenodd" clip-rule="evenodd" d="M12.3179 29.7048C12.597 29.3652 13.02 29.1486 13.4949 29.1486C13.9678 29.1486 14.3908 29.3652 14.6699 29.7048C14.9616 30.059 15.4887 30.1111 15.8428 29.8173C16.197 29.5257 16.249 29.0007 15.9574 28.6444C15.3719 27.934 14.4845 27.4819 13.4949 27.4819C12.5032 27.4819 11.6158 27.934 11.0303 28.6444C10.7387 29.0007 10.7908 29.5256 11.1449 29.8173C11.4991 30.1111 12.0262 30.059 12.3179 29.7048Z" fill="white"/>
<path fill-rule="evenodd" clip-rule="evenodd" d="M19.3865 29.7048C19.6657 29.3652 20.0886 29.1486 20.5615 29.1486C21.0365 29.1486 21.4594 29.3652 21.7386 29.7048C22.0302 30.059 22.5552 30.1111 22.9115 29.8173C23.2656 29.5257 23.3177 29.0007 23.026 28.6444C22.4406 27.934 21.5532 27.4819 20.5615 27.4819C19.5719 27.4819 18.6844 27.934 18.099 28.6444C17.8073 29.0007 17.8573 29.5256 18.2136 29.8173C18.5678 30.1111 19.0928 30.059 19.3865 29.7048Z" fill="white"/>
<path fill-rule="evenodd" clip-rule="evenodd" d="M19.672 16.2734C19.8199 16.2817 20.1803 16.3109 20.4428 16.3651C21.4511 16.5672 22.6594 16.9817 22.6594 16.9817C22.9656 17.0859 23.3052 17.0046 23.5302 16.7692C23.7552 16.5359 23.8219 16.1901 23.7052 15.8901C23.7052 15.8901 23.0135 14.1317 22.6844 12.7693C22.5781 12.3359 22.4739 11.9651 22.5281 11.7651C23.8052 6.99642 20.9719 2.08629 16.2034 0.806844C11.4326 -0.472287 6.52243 2.36517 5.24512 7.1337C3.96599 11.9045 6.79929 16.8125 11.5698 18.092C14.5135 18.8816 17.5098 18.1026 19.672 16.2734ZM15.772 2.41544C19.6532 3.45708 21.9597 7.45287 20.9198 11.3343C20.8219 11.6947 20.8761 12.3821 21.0636 13.1613C21.2011 13.7301 21.3969 14.3655 21.5865 14.9259C20.9886 14.7717 20.3428 14.6301 19.874 14.603C19.3157 14.5717 18.9095 14.7259 18.7074 14.9051C16.9407 16.4634 14.447 17.1363 12.0035 16.4821C8.12228 15.4426 5.8142 11.4468 6.85355 7.56543C7.89311 3.68425 11.8906 1.3761 15.772 2.41544Z" fill="white"/>
<path fill-rule="evenodd" clip-rule="evenodd" d="M10.8698 9.45058C10.8698 10.9797 8.57605 10.9797 8.57605 9.45058C8.57605 7.92142 10.8698 7.92142 10.8698 9.45058Z" fill="white"/>
<path fill-rule="evenodd" clip-rule="evenodd" d="M15.1364 9.45058C15.1364 10.9797 12.8427 10.9797 12.8427 9.45058C12.8427 7.92142 15.1364 7.92142 15.1364 9.45058Z" fill="white"/>
<path fill-rule="evenodd" clip-rule="evenodd" d="M19.403 9.45058C19.403 10.9797 17.1093 10.9797 17.1093 9.45058C17.1093 7.92142 19.403 7.92142 19.403 9.45058Z" fill="white"/>
<path fill-rule="evenodd" clip-rule="evenodd" d="M11.53 22.2025L10.5176 22.3379C8.03846 22.6733 5.86137 24.1608 4.64672 26.3503C3.75505 27.9586 2.62589 29.9982 1.51966 31.994C0.661325 33.5419 0.83215 35.4565 1.94882 36.8294C2.83841 37.9189 4.18005 38.4918 5.53838 38.4189C5.52588 38.496 5.51963 38.5502 5.51963 38.571C5.51963 40.0877 6.06752 41.4793 6.97588 42.5543C6.24879 43.9272 5.69883 46.0397 5.89259 49.7105C5.9155 50.1543 6.28217 50.5001 6.72591 50.5001H27.0798L27.1215 50.498C27.5465 50.4793 27.8881 50.1397 27.9131 49.7105C28.0965 46.1918 27.5985 44.1063 26.9215 42.7335C27.9235 41.6377 28.5381 40.1752 28.5381 38.5711C28.5381 38.5482 28.5297 38.4961 28.5152 38.4148C29.8985 38.5107 31.2693 37.9357 32.1714 36.8294C33.2881 35.4565 33.4589 33.5419 32.6026 31.994C31.4964 29.9982 30.3652 27.9587 29.4735 26.3504C28.261 24.1608 26.0839 22.6734 23.6026 22.338L22.5797 22.2005C21.0339 21.0713 19.1319 20.415 17.0859 20.415H16.988C14.963 20.4234 13.0715 21.0796 11.53 22.2025ZM8.26758 43.7062C7.78842 44.7958 7.46759 46.3729 7.52801 48.8333H26.2776C26.3339 46.4708 26.0402 44.9208 25.5901 43.8333C24.6527 44.4104 23.5464 44.7437 22.3652 44.7437C22.1214 44.7437 21.8818 44.7291 21.6464 44.702C20.8797 46.5124 19.086 47.7874 16.9964 47.7874C14.9089 47.7874 13.1173 46.5166 12.3486 44.7083C12.1319 44.7313 11.9132 44.7437 11.6882 44.7437C10.4236 44.7437 9.24677 44.3625 8.26758 43.7062ZM20.0072 44.277C18.753 43.7562 17.7051 42.8333 17.0281 41.6708C16.3405 42.85 15.276 43.7812 13.9968 44.2958C14.5614 45.3791 15.6927 46.1208 16.9968 46.1208C18.3093 46.1208 19.4468 45.3708 20.0072 44.277ZM17.9197 39.2917C18.2634 41.4375 20.1238 43.0771 22.3654 43.0771C24.8529 43.0771 26.8716 41.0583 26.8716 38.5709C26.8716 38.275 25.6633 33.0691 24.6258 28.4835C24.6217 28.469 24.6217 28.4544 24.6175 28.4419C23.9779 24.7544 20.83 22.0814 17.0864 22.0814H16.9947C13.2739 22.096 10.0967 24.7793 9.46148 28.4461C9.4594 28.4628 9.45523 28.4774 9.45315 28.492C8.39481 33.0711 7.18651 38.2753 7.18651 38.5708C7.18651 41.0583 9.20526 43.077 11.6885 43.077C13.9302 43.077 15.7926 41.4374 16.1385 39.2916C14.6364 38.8957 13.5261 37.5291 13.5261 35.9041C13.5261 33.9708 15.0948 32.4021 17.0281 32.4021C18.9614 32.4021 20.5301 33.9708 20.5301 35.9041C20.5301 37.5291 19.4217 38.8958 17.9197 39.2917ZM17.028 34.0688C18.0405 34.0688 18.8634 34.8896 18.8634 35.9042C18.8634 36.9167 18.0405 37.7375 17.028 37.7375C16.0135 37.7375 15.1926 36.9167 15.1926 35.9042C15.1926 34.8896 16.0135 34.0688 17.028 34.0688ZM9.43023 24.3127C8.03025 24.8251 6.84274 25.8293 6.10526 27.1584L2.9782 32.8021C2.44904 33.7542 2.55529 34.9312 3.24278 35.777C3.88443 36.5625 4.91359 36.9124 5.89278 36.6937C6.33443 34.6459 7.10316 31.2565 7.82193 28.152C8.06984 26.729 8.63232 25.4272 9.43023 24.3127ZM24.6551 24.3022C25.4468 25.4105 26.0051 26.7105 26.2551 28.1355C26.9592 31.2438 27.7197 34.6272 28.1613 36.6773C29.1613 36.9294 30.2217 36.5814 30.88 35.7773C31.5676 34.9315 31.6717 33.7544 31.1446 32.8023L28.0155 27.1587C27.2718 25.817 26.0718 24.8085 24.6551 24.3022Z" fill="white"/>
<path fill-rule="evenodd" clip-rule="evenodd" d="M30.7219 22.4151C32.3385 24.7422 35.0302 26.2693 38.0781 26.2693C43.0176 26.2693 47.0236 22.2589 47.0236 17.3216C47.0236 12.3842 43.0174 8.37402 38.0781 8.37402C33.1388 8.37402 29.1305 12.3844 29.1305 17.3216C29.1305 17.5279 28.9346 17.8612 28.72 18.2508C28.0492 19.482 26.9284 21.0007 26.9284 21.0007C26.7367 21.2612 26.7117 21.6111 26.868 21.8966C27.0242 22.1799 27.3305 22.3487 27.6555 22.3278C27.6555 22.3278 28.9305 22.2382 29.9555 22.3049C30.2221 22.3195 30.5782 22.386 30.7219 22.4151ZM38.0781 10.0403C42.0968 10.0403 45.3591 13.3028 45.3591 17.3213C45.3591 21.3379 42.0966 24.6023 38.0781 24.6023C35.5469 24.6023 33.3135 23.3065 32.0094 21.3419C31.8594 21.1169 31.5073 20.8628 30.9615 20.7482C30.5011 20.6544 29.8406 20.6232 29.2219 20.619C29.549 20.1253 29.9031 19.5627 30.1844 19.0482C30.5677 18.344 30.7969 17.694 30.7969 17.3211C30.7969 13.3024 34.0596 10.0403 38.0781 10.0403Z" fill="white"/>
<path fill-rule="evenodd" clip-rule="evenodd" d="M33.7219 14.4155C32.5344 15.6051 32.5344 17.53 33.7219 18.7196C35.3385 20.3341 37.6281 22.6237 37.6281 22.6237C37.9552 22.9487 38.4802 22.9487 38.8052 22.6237C38.8052 22.6237 41.0968 20.3341 42.7134 18.7196C43.8989 17.53 43.8989 15.6051 42.7134 14.4155C42.1405 13.8467 41.3676 13.5259 40.5614 13.5259C39.7551 13.5259 38.9802 13.8467 38.4093 14.4155L38.2176 14.6071L38.026 14.4155C37.4551 13.8467 36.6802 13.5259 35.8739 13.5259C35.0676 13.5259 34.2949 13.8467 33.7219 14.4155ZM41.5325 15.5946C41.2763 15.3384 40.9263 15.1925 40.5617 15.1925C40.1971 15.1925 39.8471 15.3384 39.5888 15.5946L38.818 16.3654C38.5138 16.6696 38.218 16.6196 38.218 16.6196C38.218 16.6196 37.9222 16.6696 37.618 16.3654L36.8472 15.5946C36.5888 15.3384 36.2389 15.1925 35.8743 15.1925C35.5097 15.1925 35.1597 15.3384 34.9014 15.5946C34.3639 16.1321 34.3639 17.0029 34.9014 17.5404L38.218 20.8549L41.5326 17.5404C42.0721 17.0029 42.0721 16.1321 41.5325 15.5946Z" fill="white"/>
</svg>
