<svg width="21" height="20" viewBox="0 0 21 20" fill="none" xmlns="http://www.w3.org/2000/svg">
<path d="M17.8991 0H3.52851C2.782 0.000159113 2.06611 0.296836 1.53832 0.824777C1.01053 1.35272 0.714058 2.06868 0.714111 2.8152V17.1852C0.714164 17.9316 1.01068 18.6475 1.53846 19.1754C2.06624 19.7032 2.78207 19.9998 3.52851 20H10.0685V12.7H7.59671V9.8524H10.0685V7.7552C10.0685 6.5664 10.3972 5.64347 11.0547 4.9864C11.7122 4.32933 12.6038 4.00013 13.7297 3.9988C14.8573 3.9988 15.5873 4.0426 15.9209 4.125V6.66H14.4191C13.8766 6.66 13.5062 6.775 13.3079 7.005C13.089 7.30276 12.9839 7.66907 13.0117 8.0376V9.8526H15.8285L15.4529 12.7H13.0117V20H17.8991C18.6457 20 19.3617 19.7034 19.8896 19.1755C20.4175 18.6476 20.7141 17.9316 20.7141 17.185V2.8152C20.7141 2.44551 20.6413 2.07944 20.4999 1.73788C20.3584 1.39633 20.1511 1.08598 19.8897 0.824565C19.6283 0.563147 19.318 0.355778 18.9764 0.214298C18.6349 0.0728187 18.2688 -9.33058e-10 17.8991 0Z" fill="white"/>
</svg>
