<svg width="56" height="51" viewBox="0 0 56 51" fill="none" xmlns="http://www.w3.org/2000/svg">
<path fill-rule="evenodd" clip-rule="evenodd" d="M34.0862 8.89379H31.223C30.7188 8.89379 30.3104 9.29989 30.3104 9.80637V18.7791C30.3104 19.2833 30.7188 19.6916 31.223 19.6916H43.8098C45.1171 19.6916 46.2441 18.7654 46.4951 17.4832L47.54 12.1561C47.6974 11.353 47.4875 10.5226 46.9673 9.89064C46.4472 9.2587 45.6715 8.89367 44.8524 8.89367H40.9398V6.34758C40.9398 4.83502 39.7146 3.60986 38.2021 3.60986H37.8211C36.6416 3.60986 35.5967 4.36276 35.2225 5.4829L34.0862 8.89379ZM33.8307 10.7189V17.8665H32.1356V10.7189H33.8307ZM35.6558 17.8665H43.8097C44.2454 17.8665 44.6196 17.5585 44.704 17.1296L45.7489 11.807C45.8014 11.5378 45.7306 11.2595 45.5572 11.0496C45.3839 10.8397 45.1261 10.7188 44.8523 10.7188H40.0271C39.5229 10.7188 39.1145 10.3104 39.1145 9.80618V6.34752C39.1145 5.84332 38.7061 5.43494 38.2019 5.43494H37.8209C37.4285 5.43494 37.0795 5.6859 36.9563 6.05777L35.6558 9.95447L35.6558 17.8665Z" fill="#FFA500"/>
<path fill-rule="evenodd" clip-rule="evenodd" d="M14.4043 27.6544C14.8127 27.1593 15.4309 26.8422 16.1222 26.8422C16.8135 26.8422 17.4318 27.1593 17.8401 27.6544C18.1595 28.0422 18.7368 28.0993 19.1246 27.7776C19.5124 27.4582 19.5694 26.8833 19.25 26.4932C18.5063 25.592 17.3816 25.0171 16.1222 25.0171C14.8628 25.0171 13.7381 25.592 12.9966 26.4932C12.6749 26.8833 12.732 27.4582 13.1198 27.7776C13.5076 28.0993 14.0849 28.0422 14.4043 27.6544Z" fill="#FFA500"/>
<path fill-rule="evenodd" clip-rule="evenodd" d="M23.8153 27.6544C24.2237 27.1593 24.8419 26.8422 25.5332 26.8422C26.2245 26.8422 26.8428 27.1593 27.2511 27.6544C27.5705 28.0422 28.1478 28.0993 28.5356 27.7776C28.9234 27.4582 28.9805 26.8833 28.6588 26.4932C27.9173 25.592 26.7926 25.0171 25.5332 25.0171C24.2738 25.0171 23.1491 25.592 22.4076 26.4932C22.0859 26.8833 22.143 27.4582 22.5308 27.7776C22.9186 28.0993 23.4959 28.0422 23.8153 27.6544Z" fill="#FFA500"/>
<path fill-rule="evenodd" clip-rule="evenodd" d="M22.3142 16.1691C21.8511 16.1144 21.3788 16.087 20.902 16.087H20.7765C18.2305 16.0961 15.8487 16.9265 13.9117 18.3456L12.593 18.5236C9.49481 18.9433 6.77309 20.8004 5.25621 23.5358C4.12689 25.5755 2.69417 28.1603 1.29333 30.6904C0.234749 32.6045 0.444655 34.9681 1.82263 36.6611C2.95877 38.0528 4.69497 38.7623 6.43338 38.6094C6.39916 38.7988 6.38091 38.9197 6.38091 38.9631C6.38091 43.1997 9.82129 46.6421 14.06 46.6421C14.3748 46.6421 14.6828 46.6216 14.9885 46.5851C15.9147 48.8802 18.1642 50.5 20.7879 50.5C23.4161 50.5 25.6679 48.8756 26.5918 46.5759C26.9204 46.6193 27.2557 46.6421 27.5957 46.6421C31.8346 46.6421 35.2771 43.1994 35.2771 38.963C35.2771 38.9197 35.2565 38.7942 35.2223 38.6026C36.9881 38.7851 38.7631 38.0756 39.9153 36.6611C41.2955 34.9683 41.5054 32.6047 40.4468 30.6904L38.1928 26.6249L42.5982 23.618H52.7279C54.1903 23.618 55.3767 22.4339 55.3767 20.9692V3.14643C55.3767 1.68632 54.1904 0.5 52.7279 0.5H24.9629C23.5005 0.5 22.3142 1.68632 22.3142 3.14643L22.3142 16.1691ZM24.8033 46.1173C23.0968 45.4511 21.6891 44.1917 20.829 42.5924C19.9575 44.2122 18.5225 45.483 16.7863 46.1423C17.4981 47.639 19.0244 48.6747 20.788 48.6747C22.5652 48.6747 24.0983 47.6276 24.8033 46.1173ZM22.3142 18.0124C21.8534 17.9462 21.3811 17.912 20.902 17.912H20.7857C15.9992 17.9302 11.9134 21.3798 11.094 26.098C11.0917 26.1162 11.0872 26.1322 11.0849 26.1482C9.73654 31.9681 8.2057 38.5819 8.2057 38.9627C8.2057 42.1932 10.8294 44.8166 14.0596 44.8166C17.0186 44.8166 19.4689 42.6151 19.8613 39.7656C17.954 39.3252 16.5327 37.6165 16.5327 35.5791C16.5327 33.2064 18.4582 31.2809 20.8286 31.2809C23.1991 31.2809 25.1246 33.2064 25.1246 35.5791C25.1246 37.6165 23.701 39.3253 21.796 39.7656C22.1861 42.6151 24.6364 44.8166 27.5954 44.8166C30.8259 44.8166 33.4516 42.193 33.4516 38.9627C33.4516 38.5817 31.9185 31.9659 30.6021 26.1388C30.5976 26.1251 30.5953 26.1069 30.593 26.0932C30.4402 25.2194 30.1801 24.3912 29.8242 23.6178H24.9624C23.5001 23.6178 22.3137 22.4338 22.3137 20.9691L22.3142 18.0124ZM20.829 33.1065C22.191 33.1065 23.2998 34.2129 23.2998 35.5796C23.2998 36.9416 22.1911 38.0504 20.829 38.0504C19.4647 38.0504 18.3582 36.9416 18.3582 35.5796C18.3582 34.213 19.4647 33.1065 20.829 33.1065ZM11.5871 20.6044C9.58851 21.2066 7.88199 22.5664 6.85307 24.4212L2.8902 31.5758C2.19209 32.8351 2.33125 34.3934 3.23926 35.5067C4.10622 36.5744 5.50927 37.0307 6.83021 36.6999C7.38688 34.1219 8.37472 29.7667 9.29647 25.7788C9.63412 23.8374 10.4417 22.0759 11.5871 20.6044ZM31.8003 23.6182C32.0581 24.3003 32.2566 25.0144 32.3867 25.7582C33.2878 29.7484 34.2666 34.0943 34.8232 36.6746C36.1693 37.051 37.6134 36.5947 38.4986 35.5065C39.4089 34.3932 39.5481 32.8349 38.85 31.5756L36.6804 27.6584L35.8887 28.1968C35.6104 28.3884 35.2476 28.409 34.9487 28.2515C34.6499 28.0918 34.4628 27.7816 34.4628 27.4439V23.6179L31.8003 23.6182ZM24.1394 3.14675V20.9695C24.1394 21.4258 24.509 21.7931 24.963 21.7931H35.3754C35.8796 21.7931 36.288 22.2015 36.288 22.7057V25.7149L41.8022 21.9528C41.9528 21.8501 42.133 21.7931 42.3155 21.7931H52.7279C53.1819 21.7931 53.5515 21.4258 53.5515 20.9695V3.14672C53.5515 2.69272 53.1819 2.32544 52.7279 2.32544H24.9629C24.5089 2.32544 24.1394 2.69277 24.1394 3.14675Z" fill="#FFA500"/>
</svg>
