<svg width="93" height="85" viewBox="0 0 93 85" fill="none" xmlns="http://www.w3.org/2000/svg">
<path d="M22.8488 31.198C21.0588 31.198 19.4388 29.988 19.4388 27.748C19.4388 26.048 20.5988 24.298 22.6788 24.298H23.4688C25.9588 24.298 28.0388 23.588 28.0388 21.018C28.0388 18.608 25.8788 17.858 23.9688 17.858H19.1888C18.2288 17.858 18.1888 18.728 18.1888 18.978C17.8588 25.748 18.0688 34.438 18.2288 39.718C18.2688 41.048 17.1088 42.588 14.6988 42.588C11.7088 42.588 11.1688 40.758 11.0788 39.758C10.7888 36.058 10.7888 17.438 11.3288 13.988C11.6588 11.788 13.8188 10.908 14.8988 10.908H23.2488C32.1888 10.908 35.0988 15.818 35.0988 21.048C35.0988 26.278 31.9388 31.188 24.5388 31.188H22.8388L22.8488 31.198Z" fill="white"/>
<path d="M8.79879 3.188C8.82879 2.188 9.28879 1.168 10.1188 0.608004C11.0488 -0.0219956 12.3388 0.0080044 13.2988 0.568004C14.2688 1.128 14.9188 2.158 15.1488 3.248C15.4788 4.868 14.6388 8.018 12.5988 8.148C10.4088 8.298 8.73879 4.988 8.79879 3.178V3.188Z" fill="white"/>
<path d="M5.41879 6.20801C4.47879 5.85801 3.36879 5.89801 2.52879 6.45801C1.59879 7.07801 1.13879 8.27801 1.28879 9.38801C1.43879 10.498 2.14879 11.488 3.06879 12.118C4.43879 13.038 7.66879 13.448 8.56879 11.618C9.52879 9.64801 7.10879 6.84801 5.40879 6.20801H5.41879Z" fill="white"/>
<path d="M19.6688 0.298003C20.6488 -0.261997 21.9588 0.00800335 22.7888 0.768003C23.6188 1.528 23.9988 2.688 24.0088 3.818C24.0288 5.028 23.6288 6.278 22.7688 7.108C21.6588 8.168 17.6488 9.228 17.2988 6.958C17.1588 6.038 17.6388 4.618 17.8288 3.718C18.0788 2.498 18.5088 0.958003 19.6788 0.288003L19.6688 0.298003Z" fill="white"/>
<path d="M3.2588 21.768C2.2388 21.778 1.2188 21.308 0.608796 20.498C-0.00120378 19.688 -0.181204 18.558 0.198796 17.608C0.608796 16.588 1.6088 15.888 2.6788 15.608C4.3588 15.168 7.9288 15.828 7.7288 18.198C7.5788 19.978 4.8788 21.748 3.2588 21.768Z" fill="white"/>
<path d="M12.0988 66.178C12.0688 65.498 11.0588 65.268 8.80879 64.728C5.79879 64.048 0.918793 62.738 1.11879 58.488C1.31879 54.308 5.20879 52.948 9.20879 52.888C10.4288 52.858 13.3588 52.918 14.4688 53.138C15.4288 53.298 16.6288 54.518 16.4988 56.198C16.3988 57.618 15.1488 58.648 13.6988 58.458C12.7888 58.328 9.98879 58.158 9.31879 58.198C7.32879 58.268 6.92879 58.528 6.92879 59.068C6.92879 59.548 8.47879 59.838 10.5988 60.388C14.7188 61.388 17.8788 62.608 17.9488 66.158C18.0488 71.378 12.7888 72.598 8.43879 72.468C6.57879 72.388 3.78879 71.888 2.22879 71.018C1.54879 70.608 0.548793 69.448 1.02879 67.938C1.60879 66.088 3.47879 65.948 4.63879 66.288C5.70879 66.648 7.50879 66.998 9.01879 67.098C11.0088 67.228 12.1488 66.998 12.1188 66.188L12.0988 66.178Z" fill="white"/>
<path d="M27.0888 69.908C27.0188 71.188 25.3888 72.228 23.9388 72.168C22.4588 72.098 21.2488 71.068 21.2488 69.678C21.3788 64.658 21.3488 60.638 21.2788 55.888C21.2788 54.538 22.4488 53.618 23.8688 53.478C25.4188 53.348 27.0788 54.118 27.0788 55.738C27.2088 60.158 27.2788 64.548 27.0788 69.908H27.0888ZM27.1188 49.478C27.0188 51.058 25.4888 51.868 23.8688 51.738C22.3888 51.608 21.3488 50.778 21.3188 49.708L21.2888 48.388C21.2088 46.938 22.8988 46.168 24.0388 46.168C25.4588 46.168 27.0488 46.778 27.1188 48.028V49.478Z" fill="white"/>
<path d="M40.4488 66.368C41.7488 66.068 42.5588 66.398 43.0388 67.418C43.7488 68.868 43.1688 70.318 42.0388 71.088C40.9888 71.858 39.5388 72.188 37.9488 72.158C34.2788 72.088 32.6588 69.518 32.5988 65.548C32.5688 63.228 32.5288 60.818 32.5288 58.468H31.7388C30.4688 58.468 29.6588 57.088 29.6588 55.878C29.6588 54.668 30.4688 53.148 31.7388 53.148H32.5588C32.5888 52.058 32.6288 51.058 32.6588 50.068C32.6588 48.458 34.4088 47.748 35.7188 47.808C37.1388 47.878 38.3888 48.798 38.3888 50.218C38.3588 51.188 38.3188 52.158 38.3188 53.148H40.3988C41.8688 53.148 42.5588 54.418 42.5588 55.838C42.5588 56.988 41.8988 58.478 40.3688 58.478H38.1488C38.1188 60.638 38.1488 62.858 38.3288 65.088C38.4288 66.688 39.6288 66.568 40.4588 66.368H40.4488Z" fill="white"/>
<path d="M51.7788 69.908C51.7088 71.188 50.0788 72.228 48.6288 72.168C47.1488 72.098 45.9388 71.068 45.9388 69.678C46.0688 64.658 46.0388 60.638 45.9688 55.888C45.9688 54.538 47.1388 53.618 48.5588 53.478C50.1088 53.348 51.7688 54.118 51.7688 55.738C51.8988 60.158 51.9688 64.548 51.7688 69.908H51.7788ZM51.8088 49.478C51.7088 51.058 50.1788 51.868 48.5588 51.738C47.0788 51.608 46.0388 50.778 46.0088 49.708L45.9788 48.388C45.8988 46.938 47.5888 46.168 48.7288 46.168C50.1488 46.168 51.7388 46.778 51.8088 48.028V49.478Z" fill="white"/>
<path d="M61.0888 70.658C59.7688 68.598 56.5788 61.348 55.1888 56.328C54.6788 54.648 56.1588 53.558 57.3488 53.268C58.7288 52.888 60.2788 53.268 60.7388 54.748C61.5288 57.268 62.5988 61.318 63.6388 64.088C64.0188 64.958 64.5988 64.958 64.9188 64.118C66.0088 61.348 67.2888 57.298 67.9188 54.778C68.2688 53.498 69.7188 52.918 71.2988 53.258C72.6488 53.558 74.0288 54.778 73.5588 56.488C71.9488 62.318 68.9788 68.528 67.3688 70.688C66.7888 71.558 65.7688 72.168 64.3188 72.168C62.7088 72.168 61.7288 71.658 61.0888 70.648V70.658Z" fill="white"/>
<path d="M83.7588 52.878C88.2688 52.878 92.4888 55.958 92.6888 61.958C92.7188 64.048 91.7788 65.268 89.8188 65.268H83.5888C82.3388 65.268 81.7588 64.148 81.7588 62.898C81.7588 61.648 82.4988 60.448 83.6488 60.448H86.8488C86.8188 59.328 86.2088 57.808 83.8788 57.808C81.5488 57.808 80.2088 59.288 80.2088 62.738C80.2088 66.188 81.6288 67.498 84.0788 67.628C85.2988 67.698 86.7188 67.498 88.0288 66.788C89.3788 66.148 90.9988 66.578 91.4388 68.238C91.8388 69.788 90.5488 70.828 90.0188 71.138C88.3588 72.108 85.9988 72.658 83.7388 72.518C77.0688 72.108 74.3688 67.888 74.3688 62.728C74.3688 57.128 77.6788 52.878 83.7388 52.878H83.7588Z" fill="white"/>
<path d="M16.5588 80.388H17.8288V79.618H18.3388V82.018H16.0588V79.618H16.5588V80.388ZM17.8288 81.608V80.788H16.5588V81.608H17.8288ZM19.8688 83.988H16.5988V82.458H17.1088V83.568H19.8688V83.988ZM19.6688 80.688H20.3688V81.118H19.6688V82.808H19.1588V79.258H19.6688V80.678V80.688Z" fill="white"/>
<path d="M22.9488 81.458H21.3288V82.568C22.0088 82.568 22.5888 82.528 23.2788 82.438L23.3188 82.858C22.5688 82.978 21.9488 82.998 21.1888 82.998H20.8188V81.058H22.4488V80.118H20.8088V79.698H22.9488V81.458ZM24.6588 84.108H24.1488V82.088H23.2088V81.658H24.1488V80.768H23.2288V80.348H24.1488V79.268H24.6588V84.108Z" fill="white"/>
<path d="M29.8288 82.028H25.4188V81.618H27.3788V81.108H25.9688V79.488H29.2888V79.888H26.4788V80.688H29.3188V81.098H27.8688V81.608H29.8288V82.018V82.028ZM29.2888 83.218C29.2888 83.778 28.6588 84.088 27.6188 84.098C26.5688 84.098 25.9388 83.778 25.9388 83.218C25.9388 82.658 26.5688 82.338 27.6188 82.338C28.6688 82.338 29.2888 82.658 29.2888 83.218ZM26.4588 83.218C26.4588 83.528 26.8788 83.698 27.6188 83.688C28.3488 83.688 28.7688 83.518 28.7688 83.218C28.7688 82.918 28.3388 82.738 27.6188 82.738C26.8988 82.738 26.4588 82.908 26.4588 83.218Z" fill="white"/>
<path d="M34.5888 81.678H32.6388V82.098H34.0388V83.228H31.2288V83.658H34.1788V84.048H30.7288V82.858H33.5388V82.488H30.7288V82.098H32.1388V81.678H30.1988V81.268H34.5988V81.678H34.5888ZM34.0188 80.908H30.7488V79.418H34.0188V80.908ZM31.2488 80.508H33.5088V79.828H31.2488V80.508Z" fill="white"/>
<path d="M40.7088 82.418H38.7988V83.098H38.2888V82.418H36.2988V82.008H40.6988V82.418H40.7088ZM40.4588 80.098H36.5288V79.708H38.2488V79.218H38.7588V79.708H40.4588V80.098ZM40.2288 83.998H36.8488V82.788H37.3588V83.588H40.2288V83.998ZM40.0888 81.018C40.0888 81.498 39.5088 81.758 38.4988 81.758C37.4888 81.758 36.9088 81.498 36.9088 81.018C36.9088 80.538 37.4888 80.288 38.4988 80.288C39.5088 80.288 40.0888 80.538 40.0888 81.018ZM37.4388 81.018C37.4388 81.258 37.8088 81.388 38.5088 81.388C39.2088 81.388 39.5788 81.268 39.5788 81.018C39.5788 80.768 39.2088 80.648 38.5088 80.648C37.8088 80.648 37.4388 80.768 37.4388 81.018Z" fill="white"/>
<path d="M43.3788 81.058H41.7788V81.778C42.5788 81.778 43.0588 81.748 43.6288 81.658L43.6788 82.078C43.0488 82.188 42.5388 82.198 41.6188 82.198H41.2588V80.668H42.8488V80.018H41.2488V79.608H43.3688V81.068L43.3788 81.058ZM45.2488 83.978H41.9288V82.558H42.4388V83.558H45.2388V83.978H45.2488ZM45.1088 82.828H44.5988V81.558H43.6988V81.138H44.5988V80.468H43.6988V80.058H44.5988V79.268H45.1088V82.818V82.828Z" fill="white"/>
<path d="M48.2388 81.698L47.9488 82.088C47.5188 81.898 47.2288 81.548 47.0688 81.128C46.8888 81.598 46.5688 81.998 46.1188 82.208L45.8288 81.818C46.4688 81.518 46.8088 80.858 46.8088 80.288V79.598H47.3088V80.288C47.3088 80.858 47.6288 81.428 48.2388 81.698ZM50.1088 83.998H46.7688V82.448H47.2788V83.578H50.1188V83.998H50.1088ZM49.0088 82.748H48.5188V80.868H47.8088V80.448H48.5188V79.348H49.0088V82.748ZM49.9688 82.888H49.4788V79.268H49.9688V82.888Z" fill="white"/>
<path d="M53.0988 80.108H51.3588V81.048H52.8988V81.458H51.3588V82.538C52.1688 82.538 52.7288 82.518 53.3688 82.408L53.4188 82.828C52.7188 82.938 52.1088 82.968 51.2088 82.978H50.8288V79.708H53.0888V80.128L53.0988 80.108ZM54.6488 84.108H54.1388V81.468H53.1788V81.048H54.1388V79.268H54.6488V84.108Z" fill="white"/>
<path d="M61.1988 83.588H56.7088V83.008H58.5988V82.128H57.0888V81.588H57.7488V80.188H57.0688V79.638H60.8288V80.188H60.1388V81.588H60.8088V82.128H59.2888V83.008H61.2088V83.588H61.1988ZM59.4488 81.588V80.188H58.4288V81.588H59.4488Z" fill="white"/>
<path d="M64.6088 82.548L64.2388 83.088C63.6588 82.838 63.2588 82.358 63.0388 81.758C62.8188 82.408 62.4088 82.948 61.8288 83.218L61.4388 82.678C62.2488 82.318 62.6688 81.408 62.6688 80.578V80.278H61.6288V79.718H64.3988V80.278H63.3788V80.578C63.3788 81.368 63.7788 82.218 64.6088 82.558V82.548ZM65.5888 84.138H64.8888V79.228H65.5888V84.138Z" fill="white"/>
<path d="M69.0188 80.188H67.1988V80.998H68.8088V81.538H67.1988V82.468C67.9488 82.468 68.5488 82.438 69.2388 82.328L69.2988 82.888C68.5288 82.998 67.8188 83.018 66.9388 83.018H66.5188V79.628H69.0188V80.188ZM70.3788 84.128H69.6788V79.218H70.3788V84.128Z" fill="white"/>
<path d="M75.5088 83.538H71.0188V82.978H75.5088V83.538ZM72.1788 80.348H74.3188V79.538H74.9988V82.158H71.4788V79.538H72.1688V80.348H72.1788ZM74.3188 81.618V80.888H72.1788V81.618H74.3188Z" fill="white"/>
<path d="M45.1388 19.278C46.8288 22.258 50.5888 32.548 52.0588 37.518C52.3888 38.878 51.6088 40.258 50.3388 40.588C48.4988 41.068 47.3888 40.018 47.0288 38.868C45.9488 35.348 43.1488 26.168 42.5188 24.898C42.2188 25.528 41.3788 28.088 40.4988 30.948H42.6688C43.7788 30.948 44.3888 32.278 44.3888 33.508C44.3888 34.558 43.9988 36.008 42.6388 36.008H38.9088C38.5788 37.118 38.2488 38.148 38.0388 38.868C37.7088 40.008 36.6188 41.068 34.8788 40.618C33.2488 40.228 32.6788 38.898 33.0388 37.518C34.5088 32.548 38.2488 22.258 39.9888 19.278C40.1988 18.858 41.1888 17.778 42.4888 17.778C43.8688 17.778 44.8988 18.858 45.1388 19.278Z" fill="white"/>
<path d="M66.0588 23.488C66.7788 26.588 67.9288 30.228 68.7388 32.488C69.0988 33.538 69.7588 33.238 69.9088 32.428C70.5988 28.548 70.9288 22.768 71.1088 19.488C71.1688 18.378 72.3988 17.588 73.8488 17.768C75.0788 17.918 76.2588 18.728 76.1988 20.058C75.8988 25.958 74.0888 36.588 72.8288 38.718C72.3488 39.558 71.2588 40.708 69.3988 40.708C67.5388 40.708 66.5088 39.508 66.1488 38.628C65.6088 37.368 64.7688 34.748 63.9488 32.008C63.1088 34.748 62.2288 37.188 61.6588 38.598C61.2988 39.468 60.2388 40.708 58.4388 40.708C56.7488 40.708 55.3688 39.718 54.9488 38.658C53.8688 36.368 51.7288 25.328 51.2488 20.118C51.0988 18.708 52.4188 17.888 53.6288 17.768C54.9488 17.648 56.2188 18.188 56.3988 19.608C56.6988 22.018 57.3288 28.698 58.1188 32.908C58.2688 33.718 58.8388 33.688 59.0788 32.908C60.1288 29.388 61.3388 23.008 61.5788 20.238C61.6988 18.798 62.8988 18.308 64.0788 18.308C65.6188 18.368 66.3988 19.478 66.3988 20.448C66.3688 21.348 66.2488 22.408 66.0688 23.488H66.0588Z" fill="white"/>
<path d="M78.3088 28.908C78.4288 27.338 79.6588 26.558 80.8088 26.678C83.4288 27.038 87.0088 27.068 90.1088 26.708C91.2788 26.498 92.5188 27.458 92.6688 28.968C92.8188 30.508 91.7688 31.588 90.7388 31.738C87.1888 32.278 83.4888 32.218 80.1688 31.738C79.0888 31.588 78.1488 30.358 78.2988 28.908H78.3088Z" fill="white"/>
</svg>
