<svg width="217" height="197" viewBox="0 0 217 197" fill="none" xmlns="http://www.w3.org/2000/svg">
<g clip-path="url(#clip0_156_1010)">
<path d="M53.4951 73.0587C49.3044 73.0587 45.5118 70.2254 45.5118 64.9801C45.5118 60.9994 48.2275 56.9016 53.0971 56.9016H54.9466C60.776 56.9016 65.6456 55.239 65.6456 49.2211C65.6456 43.5778 60.5887 41.8216 56.1171 41.8216H44.9265C42.679 41.8216 42.5854 43.8588 42.5854 44.4442C41.8128 60.2969 42.3044 80.6455 42.679 93.0093C42.7727 96.1236 40.0569 99.7297 34.4148 99.7297C27.4148 99.7297 26.1506 95.4445 25.9399 93.1029C25.261 84.439 25.261 40.8381 26.5252 32.7595C27.2977 27.608 32.3546 25.5474 34.883 25.5474H54.4315C75.3613 25.5474 82.174 37.0447 82.174 49.2913C82.174 61.538 74.776 73.0353 57.4516 73.0353H53.4717L53.4951 73.0587Z" fill="#FFA500"/>
<path d="M20.6021 7.47008C20.6723 5.12846 21.7492 2.74001 23.6924 1.42871C25.8696 -0.0465068 28.8897 0.0237416 31.1372 1.33505C33.4081 2.64635 34.9298 5.05821 35.4683 7.61057C36.2408 11.404 34.2743 18.7801 29.4984 19.0845C24.3713 19.4357 20.4616 11.685 20.6021 7.44666V7.47008Z" fill="#5C4033"/>
<path d="M12.6891 14.5415C10.4884 13.7219 7.88979 13.8156 5.92323 15.1269C3.74597 16.5787 2.66905 19.3886 3.02022 21.9878C3.37139 24.587 5.0336 26.9052 7.18745 28.3804C10.3948 30.5347 17.9567 31.4948 20.0637 27.2096C22.3112 22.5966 16.6456 16.0401 12.6657 14.5415H12.6891Z" fill="#5C4033"/>
<path d="M46.0504 0.702692C48.3447 -0.608612 51.4116 0.0236236 53.3548 1.80325C55.2979 3.58288 56.1875 6.29915 56.2109 8.94517C56.2578 11.7785 55.3213 14.7055 53.3079 16.6491C50.7093 19.1312 41.3213 21.6133 40.5019 16.2978C40.1741 14.1436 41.2979 10.8185 41.7427 8.71101C42.328 5.85424 43.3347 2.24816 46.0738 0.679276L46.0504 0.702692Z" fill="#5C4033"/>
<path d="M7.63222 50.9773C5.24426 51.0007 2.8563 49.9001 1.42821 48.0034C0.000111484 46.1067 -0.421293 43.4607 0.468339 41.2361C1.42821 38.8477 3.76934 37.2086 6.27436 36.5529C10.2075 35.5226 18.5653 37.0681 18.0971 42.6177C17.7459 46.7858 11.4249 50.9304 7.63222 50.9773Z" fill="#5C4033"/>
<path d="M28.328 154.968C28.2578 153.376 25.8932 152.837 20.6257 151.573C13.5788 149.98 2.15408 146.913 2.6223 136.961C3.09053 127.173 12.1976 123.988 21.5621 123.848C24.4183 123.778 31.2778 123.918 33.8765 124.433C36.124 124.808 38.9333 127.665 38.629 131.599C38.3949 134.924 35.4685 137.336 32.0738 136.891C29.9434 136.586 23.3882 136.188 21.8196 136.282C17.1608 136.446 16.2243 137.055 16.2243 138.319C16.2243 139.443 19.8531 140.122 24.8163 141.41C34.4618 143.752 41.8598 146.608 42.0236 154.921C42.2578 167.144 29.9434 170.001 19.7594 169.697C15.4049 169.509 8.87314 168.339 5.22097 166.301C3.62899 165.341 1.28786 162.625 2.4116 159.089C3.76946 154.757 8.14739 154.429 10.8631 155.226C13.3681 156.069 17.5822 156.888 21.1173 157.122C25.7762 157.427 28.445 156.888 28.3748 154.991L28.328 154.968Z" fill="#666666"/>
<path d="M63.4218 163.702C63.2579 166.7 59.4418 169.135 56.0472 168.994C52.5823 168.83 49.7495 166.419 49.7495 163.164C50.0539 151.409 49.9836 141.995 49.8197 130.873C49.8197 127.712 52.5589 125.557 55.8833 125.23C59.5121 124.925 63.3983 126.728 63.3983 130.522C63.7027 140.871 63.8666 151.151 63.3983 163.702H63.4218ZM63.492 115.863C63.2579 119.563 59.6759 121.46 55.8833 121.155C52.4184 120.851 49.9836 118.907 49.9134 116.402L49.8432 113.311C49.6559 109.915 53.6124 108.112 56.2813 108.112C59.6057 108.112 63.3281 109.541 63.492 112.468V115.863Z" fill="#666666"/>
<path d="M94.6993 155.413C97.7428 154.71 99.6391 155.483 100.763 157.872C102.425 161.267 101.067 164.662 98.4218 166.465C95.9636 168.268 92.5689 169.041 88.8465 168.971C80.2545 168.807 76.4619 162.789 76.3214 153.493C76.2512 148.06 76.1575 142.417 76.1575 136.914H74.308C71.3348 136.914 69.4385 133.683 69.4385 130.849C69.4385 128.016 71.3348 124.457 74.308 124.457H76.2278C76.298 121.904 76.3917 119.563 76.4619 117.245C76.4619 113.475 80.5589 111.812 83.6258 111.953C86.9502 112.116 89.8766 114.271 89.8766 117.596C89.8064 119.867 89.7127 122.139 89.7127 124.457H94.5823C98.0238 124.457 99.6391 127.431 99.6391 130.756C99.6391 133.449 98.094 136.938 94.5121 136.938H89.3147C89.2445 141.995 89.3147 147.194 89.7361 152.416C89.9703 156.162 92.7796 155.881 94.7228 155.413H94.6993Z" fill="#666666"/>
<path d="M121.224 163.702C121.06 166.7 117.244 169.135 113.85 168.994C110.385 168.83 107.552 166.419 107.552 163.164C107.856 151.409 107.786 141.995 107.622 130.873C107.622 127.712 110.361 125.557 113.686 125.23C117.315 124.925 121.201 126.728 121.201 130.522C121.505 140.871 121.669 151.151 121.201 163.702H121.224ZM121.294 115.863C121.06 119.563 117.478 121.46 113.686 121.155C110.221 120.851 107.786 118.907 107.716 116.402L107.646 113.311C107.458 109.915 111.415 108.112 114.084 108.112C117.408 108.112 121.131 109.541 121.294 112.468V115.863Z" fill="#666666"/>
<path d="M143.02 165.458C139.93 160.635 132.462 143.658 129.208 131.903C128.014 127.969 131.478 125.417 134.264 124.738C137.495 123.848 141.124 124.738 142.201 128.203C144.05 134.104 146.555 143.588 148.99 150.074C149.88 152.111 151.238 152.111 151.987 150.144C154.539 143.658 157.535 134.174 159.01 128.274C159.83 125.276 163.224 123.918 166.923 124.714C170.084 125.417 173.315 128.274 172.214 132.278C168.445 145.929 161.492 160.471 157.723 165.529C156.365 167.566 153.977 168.994 150.582 168.994C146.813 168.994 144.519 167.8 143.02 165.435V165.458Z" fill="#666666"/>
<path d="M196.094 123.825C206.652 123.825 216.532 131.037 217 145.087C217.07 149.981 214.87 152.837 210.281 152.837H195.696C192.769 152.837 191.412 150.215 191.412 147.288C191.412 144.361 193.144 141.551 195.836 141.551H203.328C203.258 138.928 201.83 135.369 196.375 135.369C190.92 135.369 187.783 138.834 187.783 146.913C187.783 154.992 191.107 158.059 196.843 158.364C199.699 158.527 203.024 158.059 206.091 156.397C209.251 154.898 213.044 155.905 214.074 159.792C215.01 163.421 211.99 165.857 210.749 166.583C206.863 168.854 201.338 170.142 196.047 169.814C180.432 168.854 174.111 158.972 174.111 146.89C174.111 133.777 181.86 123.825 196.047 123.825H196.094Z" fill="#666666"/>
<path d="M38.7694 188.243H41.7427V186.44H42.9367V192.06H37.5989V186.44H38.7694V188.243ZM41.7427 191.099V189.179H38.7694V191.099H41.7427ZM46.5186 196.673H38.8631V193.09H40.0571V195.689H46.5186V196.673ZM46.0504 188.945H47.6892V189.952H46.0504V193.909H44.8564V185.597H46.0504V188.922V188.945Z" fill="#666666"/>
<path d="M53.7293 190.748H49.9366V193.347C51.5286 193.347 52.8865 193.254 54.5018 193.043L54.5955 194.027C52.8396 194.308 51.3881 194.354 49.6089 194.354H48.7427V189.812H52.5587V187.611H48.7192V186.627H53.7293V190.748ZM57.7326 196.954H56.5386V192.223H54.338V191.217H56.5386V189.133H54.3848V188.149H56.5386V185.62H57.7326V196.954Z" fill="#666666"/>
<path d="M69.8364 192.083H59.512V191.123H64.1006V189.929H60.7996V186.135H68.5722V187.072H61.9936V188.945H68.6424V189.905H65.2478V191.099H69.8364V192.06V192.083ZM68.5722 194.869C68.5722 196.181 67.0973 196.907 64.6625 196.93C62.2043 196.93 60.7294 196.181 60.7294 194.869C60.7294 193.558 62.2043 192.809 64.6625 192.809C67.1207 192.809 68.5722 193.558 68.5722 194.869ZM61.9467 194.869C61.9467 195.595 62.93 195.993 64.6625 195.97C66.3715 195.97 67.3548 195.572 67.3548 194.869C67.3548 194.167 66.3481 193.746 64.6625 193.746C62.9768 193.746 61.9467 194.144 61.9467 194.869Z" fill="#666666"/>
<path d="M80.9802 191.263H76.415V192.247H79.6926V194.893H73.114V195.9H80.0204V196.813H71.9434V194.026H78.522V193.16H71.9434V192.247H75.2444V191.263H70.7026V190.303H81.0036V191.263H80.9802ZM79.6458 189.46H71.9903V185.971H79.6458V189.46ZM73.1608 188.524H78.4518V186.931H73.1608V188.524Z" fill="#666666"/>
<path d="M95.3078 192.996H90.8362V194.588H89.6423V192.996H84.9834V192.036H95.2844V192.996H95.3078ZM94.7225 187.564H85.5219V186.65H89.5486V185.503H90.7426V186.65H94.7225V187.564ZM94.1841 196.696H86.271V193.862H87.465V195.736H94.1841V196.696ZM93.8563 189.718C93.8563 190.842 92.4984 191.451 90.1339 191.451C87.7694 191.451 86.4115 190.842 86.4115 189.718C86.4115 188.594 87.7694 188.008 90.1339 188.008C92.4984 188.008 93.8563 188.594 93.8563 189.718ZM87.6523 189.718C87.6523 190.28 88.5185 190.584 90.1573 190.584C91.7961 190.584 92.6623 190.303 92.6623 189.718C92.6623 189.132 91.7961 188.851 90.1573 188.851C88.5185 188.851 87.6523 189.132 87.6523 189.718Z" fill="#666666"/>
<path d="M101.559 189.812H97.8128V191.498C99.6857 191.498 100.809 191.427 102.144 191.217L102.261 192.2C100.786 192.458 99.5921 192.481 97.4382 192.481H96.5954V188.898H100.318V187.376H96.572V186.416H101.535V189.835L101.559 189.812ZM105.937 196.649H98.164V193.324H99.358V195.666H105.913V196.649H105.937ZM105.609 193.956H104.415V190.982H102.308V189.999H104.415V188.43H102.308V187.47H104.415V185.62H105.609V193.933V193.956Z" fill="#666666"/>
<path d="M112.937 191.31L112.258 192.223C111.251 191.779 110.572 190.959 110.197 189.976C109.776 191.076 109.027 192.013 107.973 192.504L107.294 191.591C108.793 190.889 109.589 189.343 109.589 188.009V186.393H110.759V188.009C110.759 189.343 111.508 190.678 112.937 191.31ZM117.314 196.696H109.495V193.066H110.689V195.712H117.338V196.696H117.314ZM114.739 193.769H113.592V189.367H111.93V188.383H113.592V185.807H114.739V193.769ZM116.987 194.097H115.84V185.62H116.987V194.097Z" fill="#666666"/>
<path d="M124.315 187.587H120.241V189.788H123.846V190.748H120.241V193.277C122.137 193.277 123.448 193.23 124.947 192.973L125.064 193.956C123.425 194.214 121.997 194.284 119.89 194.308H119V186.65H124.291V187.634L124.315 187.587ZM127.943 196.954H126.749V190.772H124.502V189.788H126.749V185.62H127.943V196.954Z" fill="#666666"/>
<path d="M143.278 195.736H132.766V194.378H137.191V192.317H133.656V191.052H135.201V187.774H133.609V186.486H142.412V187.774H140.796V191.052H142.365V192.317H138.806V194.378H143.301V195.736H143.278ZM139.181 191.052V187.774H136.793V191.052H139.181Z" fill="#BDBDBD"/>
<path d="M151.261 193.301L150.395 194.565C149.037 193.98 148.1 192.856 147.585 191.451C147.07 192.973 146.111 194.237 144.753 194.869L143.84 193.605C145.736 192.762 146.719 190.631 146.719 188.688V187.985H144.284V186.674H150.769V187.985H148.381V188.688C148.381 190.537 149.318 192.528 151.261 193.324V193.301ZM153.555 197.024H151.917V185.526H153.555V197.024Z" fill="#BDBDBD"/>
<path d="M161.586 187.774H157.325V189.671H161.094V190.935H157.325V193.113C159.08 193.113 160.485 193.043 162.101 192.785L162.241 194.097C160.438 194.354 158.776 194.401 156.716 194.401H155.733V186.463H161.586V187.774ZM164.769 197H163.131V185.503H164.769V197Z" fill="#BDBDBD"/>
<path d="M176.78 195.619H166.268V194.308H176.78V195.619ZM168.984 188.149H173.994V186.252H175.586V192.387H167.345V186.252H168.96V188.149H168.984ZM173.994 191.123V189.414H168.984V191.123H173.994Z" fill="#BDBDBD"/>
<path d="M105.679 45.1467C109.635 52.1247 118.438 76.2199 121.88 87.8577C122.652 91.0423 120.826 94.2738 117.853 95.0465C113.545 96.1705 110.946 93.7118 110.104 91.0189C107.575 82.7764 101.02 61.2804 99.5451 58.3066C98.8428 59.7818 96.8763 65.7763 94.816 72.4733H99.8963C102.495 72.4733 103.923 75.5877 103.923 78.4679C103.923 80.9266 103.01 84.3219 99.8261 84.3219H91.0936C90.3211 86.9211 89.5485 89.333 89.0569 91.0189C88.2843 93.6884 85.7324 96.1705 81.6589 95.1167C77.8428 94.2035 76.5084 91.0892 77.3512 87.8577C80.7926 76.2199 89.5485 52.1247 93.6221 45.1467C94.1137 44.1632 96.4314 41.6343 99.4749 41.6343C102.706 41.6343 105.117 44.1632 105.679 45.1467Z" fill="#666666"/>
<path d="M154.655 55.0047C156.341 62.2638 159.033 70.7872 160.93 76.0793C161.772 78.538 163.318 77.8355 163.669 75.9388C165.284 66.8533 166.057 53.3188 166.478 45.6383C166.619 43.0391 169.498 41.1892 172.893 41.6107C175.772 41.962 178.535 43.8587 178.395 46.973C177.692 60.7885 173.455 85.6799 170.505 90.6675C169.381 92.6345 166.829 95.3273 162.475 95.3273C158.12 95.3273 155.709 92.5174 154.866 90.4568C153.602 87.5064 151.635 81.3713 149.716 74.9553C147.749 81.3713 145.689 87.0849 144.354 90.3865C143.512 92.4237 141.03 95.3273 136.816 95.3273C132.859 95.3273 129.629 93.0091 128.645 90.527C126.117 85.1647 121.107 59.3133 119.983 47.1135C119.632 43.8118 122.722 41.8917 125.555 41.6107C128.645 41.3297 131.619 42.5942 132.04 45.9193C132.742 51.5626 134.217 67.2046 136.067 77.0628C136.418 78.9595 137.752 78.8892 138.314 77.0628C140.772 68.8203 143.605 53.8808 144.167 47.3945C144.448 44.0226 147.257 42.8752 150.02 42.8752C153.625 43.0157 155.451 45.6149 155.451 47.8862C155.381 49.9937 155.1 52.4758 154.679 55.0047H154.655Z" fill="#666666"/>
<path d="M183.334 67.6963C183.615 64.0199 186.495 62.1935 189.187 62.4745C195.321 63.3174 203.702 63.3877 210.96 62.5447C213.699 62.053 216.602 64.3009 216.953 67.8368C217.304 71.4428 214.846 73.9718 212.435 74.323C204.124 75.5875 195.461 75.447 187.689 74.323C185.16 73.9718 182.96 71.0916 183.311 67.6963H183.334Z" fill="#666666"/>
</g>
<defs>
<clipPath id="clip0_156_1010">
<rect width="217" height="197" fill="white"/>
</clipPath>
</defs>
</svg>
