<?xml version="1.0" encoding="UTF-8"?>
<svg id="Layer_2" data-name="Layer 2" xmlns="http://www.w3.org/2000/svg" viewBox="0 0 297.48 79.88">
  <defs>
    <style>
      .cls-1 {
        fill: #333;
      }

      .cls-2 {
        fill: orange;
      }

      .cls-3 {
        fill: #5c4033;
      }
    </style>
  </defs>
  <g id="Layer_1-2" data-name="Layer 1">
    <g>
      <path class="cls-2" d="M35.74,48.81c-2.8,0-5.33-1.89-5.33-5.4,0-2.67,1.82-5.4,5.07-5.4h1.23c3.9,0,7.15-1.1,7.15-5.14,0-3.77-3.38-4.94-6.37-4.94h-7.48c-1.5,0-1.56,1.37-1.56,1.76-.52,10.6-.19,24.19,.06,32.45,.07,2.08-1.76,4.49-5.53,4.49-4.68,0-5.53-2.86-5.66-4.42-.45-5.79-.45-34.92,.39-40.31,.52-3.45,3.9-4.81,5.59-4.81h13.07c13.98,0,18.53,7.67,18.53,15.87s-4.94,15.86-16.52,15.86h-2.67Z"/>
      <g>
        <path class="cls-3" d="M13.77,4.99c.05-1.57,.77-3.16,2.07-4.03,1.45-.98,3.47-.93,4.98-.06,1.52,.87,2.53,2.48,2.89,4.2,.52,2.53-.8,7.45-3.99,7.67-3.42,.23-6.04-4.95-5.95-7.78Z"/>
        <path class="cls-3" d="M8.48,9.71c-1.47-.55-3.21-.48-4.52,.39-1.46,.97-2.18,2.85-1.94,4.59,.23,1.73,1.34,3.29,2.79,4.26,2.15,1.44,7.2,2.08,8.61-.78,1.51-3.08-2.29-7.47-4.94-8.46Z"/>
        <path class="cls-3" d="M30.76,.46c1.53-.88,3.58-.45,4.88,.74,1.29,1.19,1.89,3,1.92,4.76,.03,1.89-.59,3.84-1.95,5.15-1.73,1.67-8.01,3.31-8.55-.23-.22-1.44,.53-3.66,.82-5.07,.4-1.92,1.06-4.32,2.89-5.36Z"/>
        <path class="cls-3" d="M5.1,34.06c-1.59,.02-3.19-.72-4.15-1.99C0,30.8-.28,29.03,.32,27.55c.65-1.6,2.21-2.69,3.88-3.13,2.62-.69,8.21,.35,7.9,4.05-.23,2.78-4.46,5.55-6.99,5.58Z"/>
      </g>
      <g>
        <path class="cls-1" d="M171.41,53.76c-.05-1.06-1.62-1.42-5.15-2.27-4.72-1.06-12.34-3.12-12.04-9.77,.31-6.55,6.39-8.66,12.65-8.76,1.91-.05,6.49,.05,8.22,.39,1.49,.26,3.38,2.16,3.17,4.79-.15,2.22-2.11,3.84-4.38,3.53-1.42-.21-5.8-.46-6.86-.41-3.12,.1-3.74,.52-3.74,1.37,0,.75,2.42,1.21,5.75,2.06,6.44,1.57,11.39,3.48,11.49,9.02,.15,8.17-8.07,10.08-14.87,9.87-2.91-.13-7.27-.9-9.72-2.27-1.06-.64-2.63-2.45-1.88-4.82,.9-2.89,3.84-3.12,5.64-2.58,1.68,.57,4.48,1.11,6.86,1.26,3.12,.21,4.9-.15,4.85-1.42Z"/>
        <path class="cls-1" d="M194.86,59.61c-.1,2.01-2.65,3.63-4.92,3.53-2.32-.1-4.2-1.73-4.2-3.89,.21-7.86,.15-14.15,.05-21.57,0-2.11,1.83-3.56,4.05-3.76,2.42-.21,5.03,1.01,5.03,3.53,.21,6.91,.31,13.79,0,22.16Zm.05-31.96c-.15,2.47-2.55,3.74-5.08,3.53-2.32-.21-3.94-1.49-3.99-3.17l-.05-2.06c-.13-2.27,2.53-3.48,4.3-3.48,2.22,0,4.72,.95,4.82,2.91v2.27Z"/>
        <path class="cls-1" d="M215.76,54.07c2.04-.46,3.3,.05,4.05,1.65,1.11,2.27,.21,4.54-1.57,5.75-1.65,1.21-3.92,1.73-6.39,1.68-5.75-.1-8.27-4.12-8.38-10.33-.05-3.63-.1-7.4-.1-11.08h-1.24c-1.98,0-3.25-2.16-3.25-4.05s1.26-4.28,3.25-4.28h1.29c.05-1.7,.1-3.27,.15-4.82,0-2.53,2.73-3.63,4.79-3.53,2.22,.1,4.18,1.55,4.18,3.76-.05,1.52-.1,3.04-.1,4.59h3.25c2.29,0,3.38,1.98,3.38,4.2,0,1.8-1.03,4.12-3.43,4.12h-3.48c-.05,3.38,0,6.86,.28,10.33,.15,2.5,2.04,2.32,3.32,2.01Z"/>
        <path class="cls-1" d="M233.49,59.61c-.1,2.01-2.65,3.63-4.92,3.53-2.32-.1-4.2-1.73-4.2-3.89,.21-7.86,.15-14.15,.05-21.57,0-2.11,1.83-3.56,4.05-3.76,2.42-.21,5.03,1.01,5.03,3.53,.21,6.91,.31,13.79,0,22.16Zm.05-31.96c-.15,2.47-2.55,3.74-5.08,3.53-2.32-.21-3.94-1.49-3.99-3.17l-.05-2.06c-.13-2.27,2.53-3.48,4.3-3.48,2.22,0,4.72,.95,4.82,2.91v2.27Z"/>
        <path class="cls-1" d="M248.05,60.77c-2.06-3.22-7.06-14.56-9.23-22.42-.8-2.63,1.52-4.33,3.38-4.79,2.16-.59,4.59,0,5.31,2.32,1.24,3.94,2.91,10.28,4.54,14.61,.59,1.37,1.49,1.37,2.01,.05,1.7-4.33,3.71-10.67,4.69-14.61,.54-2.01,2.81-2.91,5.28-2.37,2.11,.46,4.28,2.37,3.53,5.05-2.53,9.12-7.16,18.84-9.69,22.22-.9,1.37-2.5,2.32-4.77,2.32-2.53,0-4.05-.8-5.05-2.37Z"/>
        <path class="cls-1" d="M283.51,32.96c7.06,0,13.66,4.82,13.97,14.2,.05,3.27-1.42,5.18-4.48,5.18h-9.74c-1.96,0-2.86-1.75-2.86-3.71s1.16-3.84,2.96-3.84h5c-.05-1.75-1.01-4.12-4.64-4.12s-5.75,2.32-5.75,7.71,2.22,7.45,6.06,7.65c1.91,.1,4.12-.21,6.19-1.31,2.11-1.01,4.64-.34,5.33,2.27,.62,2.42-1.39,4.05-2.22,4.54-2.6,1.52-6.29,2.37-9.82,2.16-10.44-.64-14.66-7.24-14.66-15.31,0-8.76,5.18-15.41,14.66-15.41Z"/>
      </g>
      <g>
        <path class="cls-1" d="M205.27,74.02h1.98v-1.21h.79v3.76h-3.56v-3.76h.78v1.21Zm1.98,1.91v-1.28h-1.98v1.28h1.98Zm3.2,3.73h-5.11v-2.39h.8v1.74h4.31v.65Zm-.32-5.16h1.1v.67h-1.1v2.65h-.8v-5.55h.8v2.23Z"/>
        <path class="cls-1" d="M215.26,75.69h-2.53v1.74c1.07,0,1.97-.06,3.04-.21l.07,.66c-1.18,.19-2.14,.22-3.34,.22h-.57v-3.04h2.55v-1.48h-2.56v-.65h3.35v2.76Zm2.68,4.15h-.79v-3.16h-1.48v-.67h1.48v-1.4h-1.43v-.66h1.43v-1.69h.79v7.57Z"/>
        <path class="cls-1" d="M226.01,76.58h-6.9v-.64h3.06v-.8h-2.2v-2.53h5.19v.63h-4.4v1.26h4.45v.64h-2.26v.8h3.06v.64Zm-.85,1.86c0,.88-.98,1.37-2.61,1.37-1.64,0-2.62-.5-2.62-1.37s.99-1.37,2.62-1.37,2.61,.5,2.61,1.37Zm-4.42,0c0,.48,.66,.75,1.81,.74,1.14,0,1.8-.26,1.8-.74s-.67-.75-1.8-.75-1.81,.27-1.81,.75Z"/>
        <path class="cls-1" d="M233.47,76.04h-3.05v.66h2.18v1.77h-4.4v.67h4.61v.62h-5.4v-1.86h4.39v-.57h-4.4v-.62h2.21v-.66h-3.04v-.64h6.89v.64Zm-.89-1.2h-5.12v-2.33h5.12v2.33Zm-4.34-.63h3.53v-1.06h-3.53v1.06Z"/>
        <path class="cls-1" d="M243.04,77.2h-2.99v1.07h-.79v-1.07h-3.11v-.64h6.89v.64Zm-.39-3.64h-6.15v-.62h2.69v-.76h.8v.76h2.66v.62Zm-.36,6.1h-5.29v-1.89h.8v1.25h4.49v.64Zm-.22-4.66c0,.75-.91,1.16-2.48,1.16-1.58,0-2.49-.4-2.48-1.16,0-.75,.9-1.15,2.48-1.15s2.48,.4,2.48,1.15Zm-4.15,0c0,.38,.57,.57,1.67,.57s1.67-.19,1.67-.57-.58-.57-1.67-.57-1.67,.19-1.67,.57Z"/>
        <path class="cls-1" d="M247.22,75.07h-2.5v1.12c1.26,0,2-.04,2.89-.19l.08,.65c-.98,.17-1.79,.19-3.22,.19h-.56v-2.39h2.49v-1.02h-2.5v-.64h3.31v2.28Zm2.92,4.56h-5.19v-2.22h.8v1.56h4.39v.66Zm-.22-1.8h-.8v-1.98h-1.41v-.66h1.41v-1.05h-1.41v-.64h1.41v-1.23h.8v5.56Z"/>
        <path class="cls-1" d="M254.83,76.07l-.45,.62c-.67-.3-1.13-.85-1.38-1.5-.28,.73-.78,1.36-1.48,1.7l-.45-.62c1-.47,1.53-1.5,1.53-2.4v-1.08h.78v1.08c0,.89,.5,1.78,1.46,2.2Zm2.92,3.59h-5.23v-2.42h.79v1.77h4.44v.65Zm-1.72-1.95h-.77v-2.94h-1.1v-.66h1.1v-1.72h.77v5.31Zm1.5,.22h-.76v-5.67h.76v5.67Z"/>
        <path class="cls-1" d="M262.42,73.59h-2.72v1.47h2.4v.64h-2.4v1.69c1.27,0,2.14-.03,3.15-.21l.08,.65c-1.1,.18-2.05,.22-3.45,.23h-.59v-5.11h3.53v.65Zm2.42,6.25h-.79v-4.12h-1.5v-.66h1.5v-2.79h.79v7.57Z"/>
        <path class="cls-2" d="M275.09,79.03h-7.03v-.9h2.95v-1.38h-2.37v-.84h1.03v-2.19h-1.06v-.86h5.89v.86h-1.08v2.19h1.05v.84h-2.38v1.38h3v.9Zm-2.73-3.13v-2.19h-1.6v2.19h1.6Z"/>
        <path class="cls-2" d="M280.43,77.4l-.58,.84c-.91-.38-1.53-1.15-1.87-2.08-.35,1.02-.99,1.86-1.89,2.28l-.62-.85c1.27-.57,1.93-1.99,1.93-3.29v-.47h-1.63v-.88h4.34v.88h-1.6v.47c0,1.24,.63,2.56,1.92,3.1Zm1.53,2.48h-1.09v-7.67h1.09v7.67Z"/>
        <path class="cls-2" d="M287.32,73.72h-2.84v1.27h2.52v.84h-2.52v1.45c1.18,0,2.12-.05,3.19-.22l.1,.87c-1.21,.18-2.31,.21-3.69,.21h-.66v-5.3h3.9v.88Zm2.13,6.17h-1.09v-7.67h1.09v7.67Z"/>
        <path class="cls-2" d="M297.48,78.95h-7.03v-.88h7.03v.88Zm-5.2-4.98h3.35v-1.27h1.07v4.1h-5.5v-4.1h1.08v1.27Zm3.35,1.98v-1.15h-3.35v1.15h3.35Z"/>
      </g>
      <g>
        <path class="cls-1" d="M70.61,30.16c2.64,4.66,8.52,20.77,10.83,28.54,.52,2.12-.71,4.29-2.68,4.8-2.87,.75-4.62-.89-5.18-2.68-1.69-5.51-6.07-19.87-7.06-21.85-.47,.99-1.79,4.99-3.16,9.46h3.39c1.74,0,2.68,2.07,2.68,4,0,1.65-.61,3.91-2.73,3.91h-5.84c-.52,1.74-1.04,3.34-1.37,4.47-.52,1.79-2.21,3.44-4.94,2.73-2.54-.61-3.44-2.68-2.87-4.85,2.31-7.77,8.15-23.87,10.88-28.54,.33-.66,1.88-2.35,3.91-2.35,2.17,0,3.77,1.69,4.14,2.35Z"/>
        <path class="cls-1" d="M103.34,36.75c1.13,4.85,2.92,10.55,4.19,14.08,.56,1.65,1.6,1.18,1.84-.09,1.08-6.07,1.6-15.11,1.88-20.25,.09-1.74,2.02-2.97,4.28-2.68,1.93,.23,3.77,1.51,3.67,3.58-.47,9.23-3.3,25.85-5.27,29.19-.75,1.32-2.45,3.11-5.37,3.11s-4.52-1.88-5.09-3.25c-.85-1.98-2.17-6.07-3.44-10.36-1.32,4.28-2.68,8.1-3.58,10.31-.56,1.37-2.21,3.3-5.04,3.3-2.64,0-4.8-1.55-5.46-3.2-1.69-3.58-5.04-20.86-5.79-29.01-.24-2.21,1.84-3.48,3.72-3.67,2.07-.19,4.05,.66,4.33,2.87,.47,3.77,1.46,14.22,2.68,20.81,.24,1.27,1.13,1.22,1.51,0,1.65-5.51,3.53-15.49,3.91-19.82,.19-2.26,2.07-3.01,3.91-3.01,2.4,.09,3.63,1.84,3.63,3.34-.05,1.41-.24,3.06-.52,4.76Z"/>
        <path class="cls-1" d="M122.51,45.23c.19-2.45,2.12-3.67,3.91-3.49,4.1,.56,9.7,.61,14.55,.05,1.84-.33,3.77,1.18,4,3.53,.24,2.4-1.41,4.1-3.01,4.33-5.56,.85-11.35,.75-16.53,0-1.69-.23-3.15-2.17-2.92-4.43Z"/>
      </g>
    </g>
  </g>
</svg>