<?xml version="1.0" encoding="UTF-8"?>
<svg id="Layer_2" data-name="Layer 2" xmlns="http://www.w3.org/2000/svg" viewBox="0 0 92.69 84.13">
  <defs>
    <style>
      .cls-1 {
        fill: #333;
      }

      .cls-2 {
        fill: orange;
      }

      .cls-3 {
        fill: #5c4033;
      }
    </style>
  </defs>
  <g id="Layer_1-2" data-name="Layer 1">
    <g>
      <path class="cls-2" d="M22.85,31.2c-1.79,0-3.41-1.21-3.41-3.45,0-1.7,1.16-3.45,3.24-3.45h.79c2.49,0,4.57-.71,4.57-3.28,0-2.41-2.16-3.16-4.07-3.16h-4.78c-.96,0-1,.87-1,1.12-.33,6.77-.12,15.46,.04,20.74,.04,1.33-1.12,2.87-3.53,2.87-2.99,0-3.53-1.83-3.62-2.83-.29-3.7-.29-22.32,.25-25.77,.33-2.2,2.49-3.08,3.57-3.08h8.35c8.94,0,11.85,4.91,11.85,10.14s-3.16,10.14-10.56,10.14h-1.7Z"/>
      <g>
        <path class="cls-3" d="M8.8,3.19c.03-1,.49-2.02,1.32-2.58,.93-.63,2.22-.6,3.18-.04,.97,.56,1.62,1.59,1.85,2.68,.33,1.62-.51,4.77-2.55,4.9-2.19,.15-3.86-3.16-3.8-4.97Z"/>
        <path class="cls-3" d="M5.42,6.21c-.94-.35-2.05-.31-2.89,.25-.93,.62-1.39,1.82-1.24,2.93,.15,1.11,.86,2.1,1.78,2.73,1.37,.92,4.6,1.33,5.5-.5,.96-1.97-1.46-4.77-3.16-5.41Z"/>
        <path class="cls-3" d="M19.67,.3c.98-.56,2.29-.29,3.12,.47,.83,.76,1.21,1.92,1.22,3.05,.02,1.21-.38,2.46-1.24,3.29-1.11,1.06-5.12,2.12-5.47-.15-.14-.92,.34-2.34,.53-3.24,.25-1.22,.68-2.76,1.85-3.43Z"/>
        <path class="cls-3" d="M3.26,21.77c-1.02,.01-2.04-.46-2.65-1.27s-.79-1.94-.41-2.89c.41-1.02,1.41-1.72,2.48-2,1.68-.44,5.25,.22,5.05,2.59-.15,1.78-2.85,3.55-4.47,3.57Z"/>
      </g>
      <g>
        <path class="cls-1" d="M12.1,66.18c-.03-.68-1.04-.91-3.29-1.45-3.01-.68-7.89-1.99-7.69-6.24,.2-4.18,4.09-5.54,8.09-5.6,1.22-.03,4.15,.03,5.26,.25,.96,.16,2.16,1.38,2.03,3.06-.1,1.42-1.35,2.45-2.8,2.26-.91-.13-3.71-.3-4.38-.26-1.99,.07-2.39,.33-2.39,.87,0,.48,1.55,.77,3.67,1.32,4.12,1,7.28,2.22,7.35,5.77,.1,5.22-5.16,6.44-9.51,6.31-1.86-.08-4.65-.58-6.21-1.45-.68-.41-1.68-1.57-1.2-3.08,.58-1.85,2.45-1.99,3.61-1.65,1.07,.36,2.87,.71,4.38,.81,1.99,.13,3.13-.1,3.1-.91Z"/>
        <path class="cls-1" d="M27.09,69.91c-.07,1.28-1.7,2.32-3.15,2.26-1.48-.07-2.69-1.1-2.69-2.49,.13-5.02,.1-9.04,.03-13.79,0-1.35,1.17-2.27,2.59-2.41,1.55-.13,3.21,.64,3.21,2.26,.13,4.42,.2,8.81,0,14.17Zm.03-20.43c-.1,1.58-1.63,2.39-3.25,2.26-1.48-.13-2.52-.96-2.55-2.03l-.03-1.32c-.08-1.45,1.61-2.22,2.75-2.22,1.42,0,3.01,.61,3.08,1.86v1.45Z"/>
        <path class="cls-1" d="M40.45,66.37c1.3-.3,2.11,.03,2.59,1.05,.71,1.45,.13,2.9-1,3.67-1.05,.77-2.5,1.1-4.09,1.07-3.67-.07-5.29-2.64-5.35-6.61-.03-2.32-.07-4.73-.07-7.08h-.79c-1.27,0-2.08-1.38-2.08-2.59s.81-2.73,2.08-2.73h.82c.03-1.09,.07-2.09,.1-3.08,0-1.61,1.75-2.32,3.06-2.26,1.42,.07,2.67,.99,2.67,2.41-.03,.97-.07,1.94-.07,2.93h2.08c1.47,0,2.16,1.27,2.16,2.69,0,1.15-.66,2.64-2.19,2.64h-2.22c-.03,2.16,0,4.38,.18,6.61,.1,1.6,1.3,1.48,2.13,1.28Z"/>
        <path class="cls-1" d="M51.78,69.91c-.07,1.28-1.7,2.32-3.15,2.26-1.48-.07-2.69-1.1-2.69-2.49,.13-5.02,.1-9.04,.03-13.79,0-1.35,1.17-2.27,2.59-2.41,1.55-.13,3.21,.64,3.21,2.26,.13,4.42,.2,8.81,0,14.17Zm.03-20.43c-.1,1.58-1.63,2.39-3.25,2.26-1.48-.13-2.52-.96-2.55-2.03l-.03-1.32c-.08-1.45,1.61-2.22,2.75-2.22,1.42,0,3.01,.61,3.08,1.86v1.45Z"/>
        <path class="cls-1" d="M61.09,70.66c-1.32-2.06-4.51-9.31-5.9-14.33-.51-1.68,.97-2.77,2.16-3.06,1.38-.38,2.93,0,3.39,1.48,.79,2.52,1.86,6.57,2.9,9.34,.38,.87,.96,.87,1.28,.03,1.09-2.77,2.37-6.82,3-9.34,.35-1.28,1.8-1.86,3.38-1.52,1.35,.3,2.73,1.52,2.26,3.23-1.61,5.83-4.58,12.04-6.19,14.2-.58,.87-1.6,1.48-3.05,1.48-1.61,0-2.59-.51-3.23-1.52Z"/>
        <path class="cls-1" d="M83.76,52.88c4.51,0,8.73,3.08,8.93,9.08,.03,2.09-.91,3.31-2.87,3.31h-6.23c-1.25,0-1.83-1.12-1.83-2.37s.74-2.45,1.89-2.45h3.2c-.03-1.12-.64-2.64-2.97-2.64s-3.67,1.48-3.67,4.93,1.42,4.76,3.87,4.89c1.22,.07,2.64-.13,3.95-.84,1.35-.64,2.97-.21,3.41,1.45,.4,1.55-.89,2.59-1.42,2.9-1.66,.97-4.02,1.52-6.28,1.38-6.67-.41-9.37-4.63-9.37-9.79,0-5.6,3.31-9.85,9.37-9.85Z"/>
      </g>
      <g>
        <path class="cls-1" d="M16.56,80.39h1.27v-.77h.51v2.4h-2.28v-2.4h.5v.77Zm1.27,1.22v-.82h-1.27v.82h1.27Zm2.04,2.38h-3.27v-1.53h.51v1.11h2.76v.42Zm-.2-3.3h.7v.43h-.7v1.69h-.51v-3.55h.51v1.42Z"/>
        <path class="cls-1" d="M22.95,81.46h-1.62v1.11c.68,0,1.26-.04,1.95-.13l.04,.42c-.75,.12-1.37,.14-2.13,.14h-.37v-1.94h1.63v-.94h-1.64v-.42h2.14v1.76Zm1.71,2.65h-.51v-2.02h-.94v-.43h.94v-.89h-.92v-.42h.92v-1.08h.51v4.84Z"/>
        <path class="cls-1" d="M29.83,82.03h-4.41v-.41h1.96v-.51h-1.41v-1.62h3.32v.4h-2.81v.8h2.84v.41h-1.45v.51h1.96v.41Zm-.54,1.19c0,.56-.63,.87-1.67,.88-1.05,0-1.68-.32-1.68-.88s.63-.88,1.68-.88,1.67,.32,1.67,.88Zm-2.83,0c0,.31,.42,.48,1.16,.47,.73,0,1.15-.17,1.15-.47s-.43-.48-1.15-.48-1.16,.17-1.16,.48Z"/>
        <path class="cls-1" d="M34.59,81.68h-1.95v.42h1.4v1.13h-2.81v.43h2.95v.39h-3.45v-1.19h2.81v-.37h-2.81v-.39h1.41v-.42h-1.94v-.41h4.4v.41Zm-.57-.77h-3.27v-1.49h3.27v1.49Zm-2.77-.4h2.26v-.68h-2.26v.68Z"/>
        <path class="cls-1" d="M40.71,82.42h-1.91v.68h-.51v-.68h-1.99v-.41h4.4v.41Zm-.25-2.32h-3.93v-.39h1.72v-.49h.51v.49h1.7v.39Zm-.23,3.9h-3.38v-1.21h.51v.8h2.87v.41Zm-.14-2.98c0,.48-.58,.74-1.59,.74-1.01,0-1.59-.26-1.59-.74,0-.48,.58-.73,1.59-.73s1.59,.25,1.59,.73Zm-2.65,0c0,.24,.37,.37,1.07,.37s1.07-.12,1.07-.37-.37-.37-1.07-.37-1.07,.12-1.07,.37Z"/>
        <path class="cls-1" d="M43.38,81.06h-1.6v.72c.8,0,1.28-.03,1.85-.12l.05,.42c-.63,.11-1.14,.12-2.06,.12h-.36v-1.53h1.59v-.65h-1.6v-.41h2.12v1.46Zm1.87,2.92h-3.32v-1.42h.51v1h2.8v.42Zm-.14-1.15h-.51v-1.27h-.9v-.42h.9v-.67h-.9v-.41h.9v-.79h.51v3.55Z"/>
        <path class="cls-1" d="M48.24,81.7l-.29,.39c-.43-.19-.72-.54-.88-.96-.18,.47-.5,.87-.95,1.08l-.29-.39c.64-.3,.98-.96,.98-1.53v-.69h.5v.69c0,.57,.32,1.14,.93,1.41Zm1.87,2.3h-3.34v-1.55h.51v1.13h2.84v.42Zm-1.1-1.25h-.49v-1.88h-.71v-.42h.71v-1.1h.49v3.4Zm.96,.14h-.49v-3.62h.49v3.62Z"/>
        <path class="cls-1" d="M53.1,80.11h-1.74v.94h1.54v.41h-1.54v1.08c.81,0,1.37-.02,2.01-.13l.05,.42c-.7,.11-1.31,.14-2.21,.15h-.38v-3.27h2.26v.42Zm1.55,4h-.51v-2.64h-.96v-.42h.96v-1.78h.51v4.84Z"/>
        <path class="cls-2" d="M61.2,83.59h-4.49v-.58h1.89v-.88h-1.51v-.54h.66v-1.4h-.68v-.55h3.76v.55h-.69v1.4h.67v.54h-1.52v.88h1.92v.58Zm-1.75-2v-1.4h-1.02v1.4h1.02Z"/>
        <path class="cls-2" d="M64.61,82.55l-.37,.54c-.58-.25-.98-.73-1.2-1.33-.22,.65-.63,1.19-1.21,1.46l-.39-.54c.81-.36,1.23-1.27,1.23-2.1v-.3h-1.04v-.56h2.77v.56h-1.02v.3c0,.79,.4,1.64,1.23,1.98Zm.98,1.59h-.7v-4.91h.7v4.91Z"/>
        <path class="cls-2" d="M69.02,80.19h-1.82v.81h1.61v.54h-1.61v.93c.75,0,1.35-.03,2.04-.14l.06,.56c-.77,.11-1.48,.13-2.36,.13h-.42v-3.39h2.5v.56Zm1.36,3.94h-.7v-4.91h.7v4.91Z"/>
        <path class="cls-2" d="M75.51,83.54h-4.49v-.56h4.49v.56Zm-3.33-3.19h2.14v-.81h.68v2.62h-3.52v-2.62h.69v.81Zm2.14,1.27v-.73h-2.14v.73h2.14Z"/>
      </g>
      <g>
        <path class="cls-1" d="M45.14,19.28c1.69,2.98,5.45,13.27,6.92,18.24,.33,1.36-.45,2.74-1.72,3.07-1.84,.48-2.95-.57-3.31-1.72-1.08-3.52-3.88-12.7-4.51-13.97-.3,.63-1.14,3.19-2.02,6.05h2.17c1.11,0,1.72,1.33,1.72,2.56,0,1.05-.39,2.5-1.75,2.5h-3.73c-.33,1.11-.66,2.14-.87,2.86-.33,1.14-1.42,2.2-3.16,1.75-1.63-.39-2.2-1.72-1.84-3.1,1.47-4.97,5.21-15.26,6.95-18.24,.21-.42,1.2-1.5,2.5-1.5,1.38,0,2.41,1.08,2.65,1.5Z"/>
        <path class="cls-1" d="M66.06,23.49c.72,3.1,1.87,6.74,2.68,9,.36,1.05,1.02,.75,1.17-.06,.69-3.88,1.02-9.66,1.2-12.94,.06-1.11,1.29-1.9,2.74-1.72,1.23,.15,2.41,.96,2.35,2.29-.3,5.9-2.11,16.53-3.37,18.66-.48,.84-1.57,1.99-3.43,1.99s-2.89-1.2-3.25-2.08c-.54-1.26-1.38-3.88-2.2-6.62-.84,2.74-1.72,5.18-2.29,6.59-.36,.87-1.42,2.11-3.22,2.11-1.69,0-3.07-.99-3.49-2.05-1.08-2.29-3.22-13.33-3.7-18.54-.15-1.41,1.17-2.23,2.38-2.35,1.32-.12,2.59,.42,2.77,1.84,.3,2.41,.93,9.09,1.72,13.3,.15,.81,.72,.78,.96,0,1.05-3.52,2.26-9.9,2.5-12.67,.12-1.44,1.32-1.93,2.5-1.93,1.54,.06,2.32,1.17,2.32,2.14-.03,.9-.15,1.96-.33,3.04Z"/>
        <path class="cls-1" d="M78.31,28.91c.12-1.57,1.35-2.35,2.5-2.23,2.62,.36,6.2,.39,9.3,.03,1.17-.21,2.41,.75,2.56,2.26,.15,1.54-.9,2.62-1.93,2.77-3.55,.54-7.25,.48-10.57,0-1.08-.15-2.02-1.38-1.87-2.83Z"/>
      </g>
    </g>
  </g>
</svg>