<svg width="414" height="111" viewBox="0 0 414 111" fill="none" xmlns="http://www.w3.org/2000/svg">
<g clip-path="url(#clip0_25_393)">
<path d="M49.739 67.8256C45.8423 67.8256 42.3213 65.1993 42.3213 60.3218C42.3213 56.6117 44.8542 52.8181 49.3772 52.8181H51.0889C56.5165 52.8181 61.0395 51.2895 61.0395 45.6756C61.0395 40.4369 56.3356 38.8111 52.1745 38.8111H41.7646C39.6771 38.8111 39.5936 40.7148 39.5936 41.2568C38.8699 55.9863 39.3292 74.8708 39.6771 86.3488C39.7745 89.2391 37.2277 92.588 31.981 92.588C25.4679 92.588 24.285 88.6138 24.1041 86.446C23.4778 78.4003 23.4778 37.9217 24.6468 30.4319C25.3705 25.6378 30.0744 23.748 32.4264 23.748H50.6158C70.0716 23.748 76.4038 34.4061 76.4038 45.8007C76.4038 57.1953 69.5288 67.8395 53.4131 67.8395H49.6972L49.739 67.8256Z" fill="#FFA500"/>
<path d="M19.1635 6.93402C19.2331 4.75237 20.2351 2.54293 22.0443 1.334C24.0623 -0.0277964 26.8735 0.0416828 28.9749 1.25062C31.0903 2.45956 32.4959 4.69679 32.9969 7.08688C33.7206 10.6025 31.8836 17.4393 27.4441 17.745C22.6845 18.0646 19.0383 10.8665 19.1635 6.93402Z" fill="#5C4033"/>
<path d="M11.8015 13.4929C9.75576 12.7286 7.33422 12.8259 5.5111 14.0348C3.47923 15.3827 2.47722 17.9951 2.81122 20.413C3.13131 22.817 4.67609 24.9847 6.69404 26.3326C9.68617 28.3336 16.7142 29.223 18.6765 25.2487C20.7779 20.9688 15.4895 14.8686 11.8015 13.4929Z" fill="#5C4033"/>
<path d="M42.8084 0.639196C44.9377 -0.583638 47.7906 0.0138828 49.5998 1.66749C51.3951 3.32109 52.2301 5.83624 52.2719 8.28191C52.3136 10.9082 51.4508 13.6179 49.5581 15.4383C47.1505 17.7589 38.4106 20.0378 37.6591 15.1187C37.3529 13.1177 38.3967 10.0328 38.8003 8.07347C39.357 5.40547 40.2755 2.07047 42.8223 0.6253L42.8084 0.639196Z" fill="#5C4033"/>
<path d="M7.09761 47.3292C4.88482 47.357 2.65811 46.3287 1.32209 44.564C-1.42679e-05 42.7992 -0.389688 40.3396 0.445327 38.283C1.34993 36.0597 3.52096 34.5451 5.84508 33.9337C9.49131 32.9748 17.2709 34.42 16.8394 39.5615C16.5193 43.4245 10.6325 47.2737 7.11152 47.3153L7.09761 47.3292Z" fill="#5C4033"/>
<path d="M238.55 74.704C238.48 73.2311 236.295 72.7308 231.382 71.5497C224.814 70.0767 214.209 67.2142 214.626 57.9734C215.058 48.8717 223.519 45.9396 232.231 45.8007C234.889 45.7312 241.263 45.8702 243.671 46.3426C245.745 46.7039 248.375 49.3441 248.083 52.9987C247.874 56.0836 245.146 58.3347 241.987 57.904C240.011 57.6121 233.915 57.2647 232.44 57.3342C228.098 57.4732 227.235 58.0568 227.235 59.238C227.235 60.2801 230.603 60.9194 235.237 62.1005C244.2 64.2821 251.089 66.9363 251.228 74.6346C251.437 85.9875 239.997 88.6416 230.533 88.3498C226.484 88.1691 220.416 87.0991 217.006 85.1954C215.531 84.3061 213.346 81.7909 214.39 78.4976C215.642 74.4817 219.734 74.1621 222.239 74.9125C224.577 75.7045 228.474 76.4549 231.786 76.6633C236.128 76.9552 238.605 76.4549 238.536 74.6901L238.55 74.704Z" fill="#333333"/>
<path d="M271.185 82.8331C271.046 85.6262 267.497 87.8773 264.338 87.7383C261.109 87.5994 258.493 85.3344 258.493 82.3329C258.785 71.4107 258.701 62.6702 258.562 52.3595C258.562 49.4275 261.109 47.4126 264.198 47.1347C267.566 46.8429 271.199 48.5382 271.199 52.0399C271.491 61.6419 271.63 71.2023 271.199 82.8331H271.185ZM271.254 38.422C271.046 41.8543 267.706 43.619 264.185 43.3272C260.956 43.0354 258.701 41.2567 258.632 38.9222L258.562 36.0597C258.381 32.9053 262.083 31.2239 264.546 31.2239C267.636 31.2239 271.115 32.544 271.254 35.2676V38.422Z" fill="#333333"/>
<path d="M300.271 75.1348C303.11 74.4956 304.864 75.2043 305.907 77.4276C307.452 80.582 306.2 83.7363 303.722 85.4177C301.426 87.0991 298.267 87.8217 294.83 87.7522C286.827 87.6133 283.32 82.0271 283.167 73.3978C283.098 68.3536 283.028 63.1149 283.028 58.0012H281.302C278.547 58.0012 276.779 54.9997 276.779 52.3734C276.779 49.7471 278.533 46.426 281.302 46.426H283.098C283.167 44.0637 283.237 41.8821 283.306 39.7282C283.306 36.2125 287.106 34.684 289.973 34.823C293.062 34.9619 295.79 36.9768 295.79 40.0478C295.72 42.16 295.651 44.2721 295.651 46.426H300.174C303.361 46.426 304.878 49.1774 304.878 52.2622C304.878 54.7635 303.444 57.9873 300.104 57.9873H295.261C295.191 62.6841 295.261 67.5199 295.651 72.3417C295.859 75.8157 298.49 75.5656 300.271 75.1348Z" fill="#333333"/>
<path d="M324.946 82.8331C324.807 85.6262 321.258 87.8773 318.099 87.7383C314.87 87.5994 312.253 85.3344 312.253 82.3329C312.546 71.4107 312.462 62.6702 312.323 52.3595C312.323 49.4275 314.87 47.4126 317.959 47.1347C321.327 46.8429 324.96 48.5382 324.96 52.0399C325.252 61.6419 325.391 71.2023 324.96 82.8331H324.946ZM325.015 38.422C324.807 41.8543 321.466 43.619 317.946 43.3272C314.717 43.0354 312.462 41.2567 312.393 38.9222L312.323 36.0597C312.142 32.9053 315.844 31.2239 318.307 31.2239C321.397 31.2239 324.876 32.544 325.015 35.2676V38.422Z" fill="#333333"/>
<path d="M345.209 84.445C342.342 79.9706 335.383 64.2127 332.363 53.2905C331.25 49.6359 334.479 47.2736 337.067 46.6344C340.073 45.8146 343.455 46.6344 344.457 49.8583C346.183 55.3332 348.507 64.1432 350.775 70.1601C351.597 72.0638 352.849 72.0638 353.573 70.2296C355.939 64.2127 358.736 55.4027 360.1 49.9277C360.851 47.1347 364.01 45.884 367.448 46.6344C370.384 47.2736 373.404 49.9277 372.361 53.6518C368.84 66.3248 362.396 79.8316 358.875 84.5284C357.623 86.4321 355.396 87.7522 352.237 87.7522C348.716 87.7522 346.6 86.6406 345.209 84.4589V84.445Z" fill="#333333"/>
<path d="M394.558 45.8007C404.383 45.8007 413.569 52.4985 414 65.5328C414.07 70.0767 412.024 72.7308 407.765 72.7308H394.21C391.482 72.7308 390.23 70.2991 390.23 67.5755C390.23 64.8519 391.844 62.2395 394.349 62.2395H401.308C401.238 59.8077 399.902 56.5144 394.85 56.5144C389.798 56.5144 386.848 59.7382 386.848 67.2281C386.848 74.7179 389.938 77.5805 395.282 77.8584C397.94 77.9974 401.016 77.5666 403.896 76.038C406.833 74.6346 410.354 75.5656 411.314 79.1924C412.177 82.5552 409.38 84.8202 408.224 85.5011C404.606 87.6133 399.471 88.7944 394.558 88.5026C380.029 87.6133 374.156 78.442 374.156 67.2281C374.156 55.0553 381.365 45.8146 394.558 45.8146V45.8007Z" fill="#333333"/>
<path d="M98.2672 41.9099C101.941 48.3853 110.124 70.7715 113.339 81.5686C114.063 84.5145 112.351 87.5299 109.61 88.2386C105.615 89.2808 103.18 87.0019 102.401 84.5145C100.049 76.8579 93.953 56.9035 92.5752 54.1521C91.9211 55.5278 90.0841 61.0861 88.1775 67.2976H92.8953C95.3169 67.2976 96.625 70.174 96.625 72.8559C96.625 75.1487 95.7761 78.2892 92.8257 78.2892H84.6983C83.9746 80.7071 83.2509 82.9304 82.7916 84.5006C82.068 86.988 79.716 89.2808 75.9167 88.2942C72.3818 87.4465 71.1293 84.5701 71.9225 81.5547C75.1373 70.7576 83.2648 48.3853 87.0641 41.896C87.5234 40.9788 89.6805 38.6304 92.5056 38.6304C95.5256 38.6304 97.7523 40.9788 98.2672 41.896V41.9099Z" fill="#333333"/>
<path d="M143.817 51.0672C145.39 57.8067 147.881 65.7273 149.648 70.6326C150.428 72.9254 151.875 72.2723 152.209 70.5075C153.712 62.0727 154.436 49.5109 154.826 42.3684C154.951 39.9505 157.637 38.2414 160.782 38.6443C163.468 38.9639 166.029 40.7426 165.889 43.619C165.235 56.4449 161.297 79.5398 158.555 84.181C157.512 86.0153 155.146 88.5026 151.082 88.5026C147.018 88.5026 144.791 85.8902 143.998 83.9865C142.815 81.2351 140.978 75.5517 139.211 69.5904C137.374 75.5378 135.481 80.846 134.229 83.917C133.449 85.8207 131.153 88.5026 127.214 88.5026C123.54 88.5026 120.534 86.3488 119.616 84.056C117.264 79.0812 112.602 55.0692 111.558 43.7441C111.224 40.6731 114.119 38.9084 116.735 38.6443C119.616 38.3803 122.371 39.5615 122.761 42.6324C123.415 47.8712 124.793 62.3923 126.491 71.5497C126.825 73.3145 128.063 73.245 128.592 71.5497C130.888 63.8931 133.505 50.025 134.034 44.0081C134.298 40.8677 136.915 39.8255 139.475 39.8255C142.815 39.9505 144.527 42.3823 144.527 44.4667C144.457 46.426 144.193 48.7188 143.803 51.0811L143.817 51.0672Z" fill="#333333"/>
<path d="M170.496 62.8509C170.76 59.4464 173.446 57.7511 175.937 58.0012C181.643 58.7794 189.437 58.8489 196.187 58.0707C198.747 57.6121 201.433 59.7104 201.753 62.9759C202.087 66.3109 199.791 68.6732 197.564 68.9928C189.827 70.174 181.769 70.035 174.56 68.9928C172.208 68.6732 170.176 65.9774 170.496 62.837V62.8509Z" fill="#333333"/>
</g>
<defs>
<clipPath id="clip0_25_393">
<rect width="414" height="111" fill="white"/>
</clipPath>
</defs>
</svg>
