<svg width="93" height="85" viewBox="0 0 93 85" fill="none" xmlns="http://www.w3.org/2000/svg">
<g clip-path="url(#clip0_98_3719)">
<path d="M22.85 31.2C21.06 31.2 19.44 29.99 19.44 27.75C19.44 26.05 20.6 24.3 22.68 24.3H23.47C25.96 24.3 28.04 23.59 28.04 21.02C28.04 18.61 25.88 17.86 23.97 17.86H19.19C18.23 17.86 18.19 18.73 18.19 18.98C17.86 25.75 18.07 34.44 18.23 39.72C18.27 41.05 17.11 42.59 14.7 42.59C11.71 42.59 11.17 40.76 11.08 39.76C10.79 36.06 10.79 17.44 11.33 13.99C11.66 11.79 13.82 10.91 14.9 10.91H23.25C32.19 10.91 35.1 15.82 35.1 21.05C35.1 26.28 31.94 31.19 24.54 31.19H22.84L22.85 31.2Z" fill="white"/>
<path d="M8.8 3.19C8.83 2.19 9.29 1.17 10.12 0.610003C11.05 -0.0199967 12.34 0.0100033 13.3 0.570003C14.27 1.13 14.92 2.16 15.15 3.25C15.48 4.87 14.64 8.02 12.6 8.15C10.41 8.3 8.74 4.99 8.8 3.18V3.19Z" fill="white"/>
<path d="M5.42 6.21C4.48 5.86 3.37 5.9 2.53 6.46C1.6 7.08 1.14 8.28 1.29 9.39C1.44 10.5 2.15 11.49 3.07 12.12C4.44 13.04 7.67 13.45 8.57 11.62C9.53 9.65 7.11 6.85 5.41 6.21H5.42Z" fill="white"/>
<path d="M19.67 0.300002C20.65 -0.259998 21.96 0.0100023 22.79 0.770002C23.62 1.53 24 2.69 24.01 3.82C24.03 5.03 23.63 6.28 22.77 7.11C21.66 8.17 17.65 9.23 17.3 6.96C17.16 6.04 17.64 4.62 17.83 3.72C18.08 2.5 18.51 0.960002 19.68 0.290002L19.67 0.300002Z" fill="white"/>
<path d="M3.26 21.77C2.24 21.78 1.22 21.31 0.610002 20.5C1.66893e-06 19.69 -0.179998 18.56 0.200002 17.61C0.610002 16.59 1.61 15.89 2.68 15.61C4.36 15.17 7.93 15.83 7.73 18.2C7.58 19.98 4.88 21.75 3.26 21.77Z" fill="white"/>
<path d="M12.1 66.18C12.07 65.5 11.06 65.27 8.81001 64.73C5.80001 64.05 0.920006 62.74 1.12001 58.49C1.32001 54.31 5.21001 52.95 9.21001 52.89C10.43 52.86 13.36 52.92 14.47 53.14C15.43 53.3 16.63 54.52 16.5 56.2C16.4 57.62 15.15 58.65 13.7 58.46C12.79 58.33 9.99001 58.16 9.32001 58.2C7.33001 58.27 6.93001 58.53 6.93001 59.07C6.93001 59.55 8.48001 59.84 10.6 60.39C14.72 61.39 17.88 62.61 17.95 66.16C18.05 71.38 12.79 72.6 8.44001 72.47C6.58001 72.39 3.79001 71.89 2.23001 71.02C1.55001 70.61 0.550006 69.45 1.03001 67.94C1.61001 66.09 3.48001 65.95 4.64001 66.29C5.71001 66.65 7.51001 67 9.02001 67.1C11.01 67.23 12.15 67 12.12 66.19L12.1 66.18Z" fill="white"/>
<path d="M27.09 69.91C27.02 71.19 25.39 72.23 23.94 72.17C22.46 72.1 21.25 71.07 21.25 69.68C21.38 64.66 21.35 60.64 21.28 55.89C21.28 54.54 22.45 53.62 23.87 53.48C25.42 53.35 27.08 54.12 27.08 55.74C27.21 60.16 27.28 64.55 27.08 69.91H27.09ZM27.12 49.48C27.02 51.06 25.49 51.87 23.87 51.74C22.39 51.61 21.35 50.78 21.32 49.71L21.29 48.39C21.21 46.94 22.9 46.17 24.04 46.17C25.46 46.17 27.05 46.78 27.12 48.03V49.48Z" fill="white"/>
<path d="M40.45 66.37C41.75 66.07 42.56 66.4 43.04 67.42C43.75 68.87 43.17 70.32 42.04 71.09C40.99 71.86 39.54 72.19 37.95 72.16C34.28 72.09 32.66 69.52 32.6 65.55C32.57 63.23 32.53 60.82 32.53 58.47H31.74C30.47 58.47 29.66 57.09 29.66 55.88C29.66 54.67 30.47 53.15 31.74 53.15H32.56C32.59 52.06 32.63 51.06 32.66 50.07C32.66 48.46 34.41 47.75 35.72 47.81C37.14 47.88 38.39 48.8 38.39 50.22C38.36 51.19 38.32 52.16 38.32 53.15H40.4C41.87 53.15 42.56 54.42 42.56 55.84C42.56 56.99 41.9 58.48 40.37 58.48H38.15C38.12 60.64 38.15 62.86 38.33 65.09C38.43 66.69 39.63 66.57 40.46 66.37H40.45Z" fill="white"/>
<path d="M51.78 69.91C51.71 71.19 50.08 72.23 48.63 72.17C47.15 72.1 45.94 71.07 45.94 69.68C46.07 64.66 46.04 60.64 45.97 55.89C45.97 54.54 47.14 53.62 48.56 53.48C50.11 53.35 51.77 54.12 51.77 55.74C51.9 60.16 51.97 64.55 51.77 69.91H51.78ZM51.81 49.48C51.71 51.06 50.18 51.87 48.56 51.74C47.08 51.61 46.04 50.78 46.01 49.71L45.98 48.39C45.9 46.94 47.59 46.17 48.73 46.17C50.15 46.17 51.74 46.78 51.81 48.03V49.48Z" fill="white"/>
<path d="M61.09 70.66C59.77 68.6 56.58 61.35 55.19 56.33C54.68 54.65 56.16 53.56 57.35 53.27C58.73 52.89 60.28 53.27 60.74 54.75C61.53 57.27 62.6 61.32 63.64 64.09C64.02 64.96 64.6 64.96 64.92 64.12C66.01 61.35 67.29 57.3 67.92 54.78C68.27 53.5 69.72 52.92 71.3 53.26C72.65 53.56 74.03 54.78 73.56 56.49C71.95 62.32 68.98 68.53 67.37 70.69C66.79 71.56 65.77 72.17 64.32 72.17C62.71 72.17 61.73 71.66 61.09 70.65V70.66Z" fill="white"/>
<path d="M83.76 52.88C88.27 52.88 92.49 55.96 92.69 61.96C92.72 64.05 91.78 65.27 89.82 65.27H83.59C82.34 65.27 81.76 64.15 81.76 62.9C81.76 61.65 82.5 60.45 83.65 60.45H86.85C86.82 59.33 86.21 57.81 83.88 57.81C81.55 57.81 80.21 59.29 80.21 62.74C80.21 66.19 81.63 67.5 84.08 67.63C85.3 67.7 86.72 67.5 88.03 66.79C89.38 66.15 91 66.58 91.44 68.24C91.84 69.79 90.55 70.83 90.02 71.14C88.36 72.11 86 72.66 83.74 72.52C77.07 72.11 74.37 67.89 74.37 62.73C74.37 57.13 77.68 52.88 83.74 52.88H83.76Z" fill="white"/>
<path d="M45.14 19.28C46.83 22.26 50.59 32.55 52.06 37.52C52.39 38.88 51.61 40.26 50.34 40.59C48.5 41.07 47.39 40.02 47.03 38.87C45.95 35.35 43.15 26.17 42.52 24.9C42.22 25.53 41.38 28.09 40.5 30.95H42.67C43.78 30.95 44.39 32.28 44.39 33.51C44.39 34.56 44 36.01 42.64 36.01H38.91C38.58 37.12 38.25 38.15 38.04 38.87C37.71 40.01 36.62 41.07 34.88 40.62C33.25 40.23 32.68 38.9 33.04 37.52C34.51 32.55 38.25 22.26 39.99 19.28C40.2 18.86 41.19 17.78 42.49 17.78C43.87 17.78 44.9 18.86 45.14 19.28Z" fill="white"/>
<path d="M66.06 23.49C66.78 26.59 67.93 30.23 68.74 32.49C69.1 33.54 69.76 33.24 69.91 32.43C70.6 28.55 70.93 22.77 71.11 19.49C71.17 18.38 72.4 17.59 73.85 17.77C75.08 17.92 76.26 18.73 76.2 20.06C75.9 25.96 74.09 36.59 72.83 38.72C72.35 39.56 71.26 40.71 69.4 40.71C67.54 40.71 66.51 39.51 66.15 38.63C65.61 37.37 64.77 34.75 63.95 32.01C63.11 34.75 62.23 37.19 61.66 38.6C61.3 39.47 60.24 40.71 58.44 40.71C56.75 40.71 55.37 39.72 54.95 38.66C53.87 36.37 51.73 25.33 51.25 20.12C51.1 18.71 52.42 17.89 53.63 17.77C54.95 17.65 56.22 18.19 56.4 19.61C56.7 22.02 57.33 28.7 58.12 32.91C58.27 33.72 58.84 33.69 59.08 32.91C60.13 29.39 61.34 23.01 61.58 20.24C61.7 18.8 62.9 18.31 64.08 18.31C65.62 18.37 66.4 19.48 66.4 20.45C66.37 21.35 66.25 22.41 66.07 23.49H66.06Z" fill="white"/>
<path d="M78.31 28.91C78.43 27.34 79.66 26.56 80.81 26.68C83.43 27.04 87.01 27.07 90.11 26.71C91.28 26.5 92.52 27.46 92.67 28.97C92.82 30.51 91.77 31.59 90.74 31.74C87.19 32.28 83.49 32.22 80.17 31.74C79.09 31.59 78.15 30.36 78.3 28.91H78.31Z" fill="white"/>
</g>
<defs>
<clipPath id="clip0_98_3719">
<rect width="92.69" height="84.13" fill="white"/>
</clipPath>
</defs>
</svg>
